<?xml version="1.0" encoding="utf-8"?>
<!-- Generator: Adobe Illustrator 16.0.0, SVG Export Plug-In . SVG Version: 6.00 Build 0)  -->
<!DOCTYPE svg PUBLIC "-//W3C//DTD SVG 1.1//EN" "http://www.w3.org/Graphics/SVG/1.1/DTD/svg11.dtd">
<svg version="1.1" id="Layer_1" xmlns="http://www.w3.org/2000/svg" xmlns:xlink="http://www.w3.org/1999/xlink" x="0px" y="0px"
	 width="448px" height="512px" viewBox="0 0 448 512" enable-background="new 0 0 448 512" xml:space="preserve">
<path d="M0,155.2v201.6C0,380.65,18.813,400,42,400h364C429.187,400,448,380.65,448,356.8V155.2c0-23.85-18.813-43.2-42.001-43.2H42
	C18.813,112,0,131.35,0,155.2z M420,256c0,15.931-12.512,28.8-28.001,28.8C376.513,284.8,364,271.931,364,256
	c0-15.93,12.513-28.8,27.999-28.8C407.489,227.2,420,240.07,420,256z"/>
</svg>
