<?xml version="1.0" encoding="utf-8"?>
<!-- Generator: Adobe Illustrator 16.0.0, SVG Export Plug-In . SVG Version: 6.00 Build 0)  -->
<!DOCTYPE svg PUBLIC "-//W3C//DTD SVG 1.1//EN" "http://www.w3.org/Graphics/SVG/1.1/DTD/svg11.dtd">
<svg version="1.1" id="Layer_1" xmlns="http://www.w3.org/2000/svg" xmlns:xlink="http://www.w3.org/1999/xlink" x="0px" y="0px"
	 width="448px" height="512px" viewBox="0 0 448 512" enable-background="new 0 0 448 512" xml:space="preserve">
<path d="M1.466,102.32V409.68c0,23.14,18.774,41.912,41.913,41.912h363.243c23.14,0,41.913-18.772,41.913-41.912V102.32
	c0-23.139-18.773-41.913-41.913-41.913H43.379C20.24,60.408,1.466,79.181,1.466,102.32z M420.592,256
	c0,15.456-12.485,27.941-27.941,27.941c-15.455,0-27.941-12.485-27.941-27.941c0-15.455,12.486-27.941,27.941-27.941
	C408.107,228.059,420.592,240.545,420.592,256z"/>
</svg>
