<?xml version="1.0" encoding="utf-8"?>
<!-- Generator: Adobe Illustrator 16.0.0, SVG Export Plug-In . SVG Version: 6.00 Build 0)  -->
<!DOCTYPE svg PUBLIC "-//W3C//DTD SVG 1.1//EN" "http://www.w3.org/Graphics/SVG/1.1/DTD/svg11.dtd">
<svg version="1.1" id="Layer_1" xmlns="http://www.w3.org/2000/svg" xmlns:xlink="http://www.w3.org/1999/xlink" x="0px" y="0px"
	 width="448px" height="512px" viewBox="0 0 448 512" enable-background="new 0 0 448 512" xml:space="preserve">
<rect x="11.5" y="89.5" fill="none" stroke="currentColor" stroke-width="20" stroke-miterlimit="10" width="430" height="330"/>
<g enable-background="new    ">
	<path d="M112.527,245.223c4.523,1.055,7.699,2.332,9.527,3.832c2.625,2.133,3.938,4.898,3.938,8.296
		c0,3.586-1.441,6.551-4.324,8.896c-3.539,2.836-8.685,4.254-15.435,4.254H82.011V269.2c2.203,0,3.697-0.205,4.482-0.615
		c0.784-0.41,1.336-0.942,1.651-1.601c0.316-0.656,0.476-2.272,0.476-4.852v-30.938c0-2.578-0.158-4.201-0.476-4.869
		c-0.316-0.668-0.874-1.201-1.67-1.6c-0.797-0.398-2.285-0.598-4.465-0.598v-1.301h22.852c5.462,0,9.328,0.486,11.603,1.459
		c2.272,0.973,4.065,2.426,5.379,4.359c1.313,1.934,1.969,3.99,1.969,6.17c0,2.297-0.832,4.342-2.496,6.135
		C119.652,242.744,116.722,244.168,112.527,245.223z M99.73,247.016v15.292l-0.035,1.758c0,1.267,0.322,2.222,0.968,2.865
		c0.645,0.646,1.6,0.967,2.864,0.967c1.875,0,3.604-0.416,5.187-1.248s2.795-2.039,3.639-3.62c0.844-1.582,1.267-3.347,1.267-5.291
		c0-2.227-0.517-4.225-1.548-5.994c-1.031-1.77-2.448-3.006-4.254-3.709C106.011,247.332,103.316,246.992,99.73,247.016z
		 M99.73,244.273c3.328,0,5.783-0.375,7.365-1.125s2.795-1.805,3.639-3.164c0.845-1.359,1.267-3.094,1.267-5.203
		c0-2.109-0.417-3.838-1.248-5.187c-0.832-1.348-2.021-2.373-3.568-3.076s-4.031-1.043-7.453-1.02L99.73,244.273L99.73,244.273z"/>
	<path d="M130.211,222.828h24.608v1.301h-1.229c-1.853,0-3.124,0.193-3.814,0.58s-1.184,0.92-1.477,1.6s-0.439,2.379-0.439,5.098
		v23.344c0,4.267,0.322,7.09,0.968,8.474c0.645,1.383,1.705,2.53,3.182,3.444s3.34,1.371,5.59,1.371c2.578,0,4.775-0.58,6.592-1.74
		c1.816-1.159,3.177-2.76,4.078-4.799c0.902-2.039,1.354-5.59,1.354-10.652v-19.441c0-2.133-0.224-3.656-0.668-4.57
		c-0.445-0.914-1.009-1.547-1.688-1.898c-1.055-0.539-2.543-0.809-4.465-0.809v-1.301h16.488v1.301h-0.984
		c-1.336,0-2.449,0.27-3.34,0.809s-1.535,1.348-1.934,2.426c-0.306,0.75-0.457,2.098-0.457,4.043v18.105
		c0,5.602-0.369,9.645-1.107,12.128c-0.738,2.484-2.537,4.771-5.396,6.855c-2.859,2.086-6.762,3.129-11.706,3.129
		c-4.125,0-7.313-0.551-9.563-1.652c-3.071-1.5-5.238-3.422-6.504-5.766s-1.898-5.496-1.898-9.457v-23.344
		c0-2.742-0.152-4.447-0.457-5.115s-0.832-1.201-1.582-1.6c-0.75-0.398-2.133-0.586-4.147-0.563v-1.302H130.211z"/>
	<path d="M225.942,222.828v12.902h-1.266c-0.751-2.977-1.583-5.115-2.497-6.416c-0.914-1.301-2.168-2.338-3.762-3.111
		c-0.892-0.422-2.449-0.633-4.676-0.633h-3.552v36.773c0,2.438,0.136,3.962,0.404,4.57s0.796,1.144,1.582,1.601
		c0.785,0.457,1.857,0.686,3.217,0.686h1.582v1.301h-24.961v-1.301h1.582c1.383,0,2.496-0.246,3.34-0.738
		c0.609-0.328,1.09-0.891,1.441-1.688c0.258-0.563,0.387-2.039,0.387-4.431V225.57h-3.445c-3.211,0-5.543,0.68-6.996,2.039
		c-2.038,1.898-3.327,4.605-3.866,8.121h-1.336v-12.902H225.942z"/>
	<path d="M273.965,222.828v12.902h-1.266c-0.752-2.977-1.582-5.115-2.496-6.416c-0.914-1.301-2.168-2.338-3.763-3.111
		c-0.892-0.422-2.448-0.633-4.676-0.633h-3.551v36.773c0,2.438,0.135,3.962,0.404,4.57c0.269,0.608,0.796,1.144,1.582,1.601
		c0.784,0.457,1.856,0.686,3.217,0.686H265v1.301h-24.961v-1.301h1.582c1.383,0,2.496-0.246,3.34-0.738
		c0.608-0.328,1.09-0.891,1.44-1.688c0.259-0.563,0.388-2.039,0.388-4.431V225.57h-3.445c-3.212,0-5.543,0.68-6.996,2.039
		c-2.039,1.898-3.328,4.605-3.867,8.121h-1.336v-12.902H273.965z"/>
	<path d="M303.073,222.16c7.595-0.281,13.765,1.934,18.511,6.645c4.745,4.711,7.118,10.605,7.118,17.684
		c0,6.047-1.77,11.366-5.309,15.961c-4.688,6.094-11.309,9.141-19.863,9.141c-8.577,0-15.211-2.905-19.897-8.719
		c-3.704-4.595-5.555-10.043-5.555-16.348c0-7.078,2.407-12.979,7.225-17.701C290.12,224.101,296.043,221.879,303.073,222.16z
		 M303.495,224.41c-4.358,0-7.677,2.227-9.948,6.68c-1.853,3.656-2.777,8.906-2.777,15.75c0,8.133,1.429,14.145,4.289,18.035
		c1.991,2.719,4.781,4.078,8.367,4.078c2.414,0,4.43-0.586,6.047-1.758c2.063-1.5,3.668-3.896,4.815-7.189
		c1.148-3.293,1.724-7.588,1.724-12.885c0-6.305-0.586-11.021-1.758-14.15c-1.173-3.129-2.666-5.338-4.482-6.627
		C307.955,225.055,305.864,224.41,303.495,224.41z"/>
	<path d="M349.198,222.828l23.521,29.566v-20.496c0-2.859-0.41-4.793-1.23-5.801c-1.125-1.359-3.012-2.016-5.66-1.969v-1.301h15.75
		v1.301c-2.016,0.258-3.368,0.592-4.061,1.002c-0.692,0.41-1.23,1.078-1.617,2.004c-0.387,0.926-0.58,2.514-0.58,4.764v39.691
		h-1.195l-32.237-39.691v30.305c0,2.742,0.627,4.594,1.881,5.555s2.688,1.441,4.307,1.441h1.125v1.301h-16.91v-1.301
		c2.625-0.023,4.453-0.563,5.484-1.617s1.547-2.848,1.547-5.379v-33.645l-1.02-1.266c-1.008-1.266-1.898-2.098-2.672-2.496
		c-0.774-0.398-1.888-0.621-3.341-0.668v-1.301L349.198,222.828L349.198,222.828z"/>
</g>
</svg>
