<?xml version="1.0" encoding="utf-8"?>
<!-- Generator: Adobe Illustrator 16.0.0, SVG Export Plug-In . SVG Version: 6.00 Build 0)  -->
<!DOCTYPE svg PUBLIC "-//W3C//DTD SVG 1.1//EN" "http://www.w3.org/Graphics/SVG/1.1/DTD/svg11.dtd">
<svg version="1.1" id="Layer_1" xmlns="http://www.w3.org/2000/svg" xmlns:xlink="http://www.w3.org/1999/xlink" x="0px" y="0px"
	 width="448px" height="512px" viewBox="0 0 448 512" enable-background="new 0 0 448 512" xml:space="preserve">
<path fill="none" stroke="currentColor" stroke-width="26" stroke-miterlimit="10" d="M434.5,493.277c0,6.75-5.373,12.223-12,12.223h-396
	c-6.627,0-12-5.473-12-12.223V24.723c0-6.75,5.373-12.223,12-12.223h396c6.627,0,12,5.473,12,12.223V493.277z"/>
<path d="M390.714,376H58.286c-7.062,0-12.786,7.163-12.786,16v32c0,8.837,5.724,16,12.786,16h332.428
	c7.062,0,12.786-7.163,12.786-16v-32C403.5,383.163,397.776,376,390.714,376z M390.714,248H58.286c-7.062,0-12.786,7.164-12.786,16
	v32c0,8.836,5.724,16,12.786,16h332.428c7.062,0,12.786-7.164,12.786-16v-32C403.5,255.164,397.776,248,390.714,248z M390.714,120
	H58.286c-7.062,0-12.786,7.164-12.786,16v32c0,8.836,5.724,16,12.786,16h332.428c7.062,0,12.786-7.164,12.786-16v-32
	C403.5,127.164,397.776,120,390.714,120z"/>
</svg>
