<?xml version="1.0" encoding="utf-8"?>
<!-- Generator: Adobe Illustrator 16.0.0, SVG Export Plug-In . SVG Version: 6.00 Build 0)  -->
<!DOCTYPE svg PUBLIC "-//W3C//DTD SVG 1.1//EN" "http://www.w3.org/Graphics/SVG/1.1/DTD/svg11.dtd">
<svg version="1.1" id="Layer_1" xmlns="http://www.w3.org/2000/svg" xmlns:xlink="http://www.w3.org/1999/xlink" x="0px" y="0px"
	 width="448px" height="512px" viewBox="0 0 448 512" enable-background="new 0 0 448 512" xml:space="preserve">
<path fill="none" stroke="currentColor" stroke-width="31" stroke-miterlimit="10" d="M350.5,486.525c0,6.612-3.198,11.975-7.143,11.975
	H107.643c-3.944,0-7.143-5.362-7.143-11.975V27.475c0-6.613,3.198-11.975,7.143-11.975h235.715c3.944,0,7.143,5.362,7.143,11.975
	V486.525z"/>
<path fill="none" stroke="currentColor" stroke-width="31" stroke-miterlimit="10" d="M423.15,96.5c5.716,0,10.351,4.35,10.351,9.714
	v320.572c0,5.364-4.635,9.714-10.351,9.714H26.352c-5.716,0-10.352-4.35-10.352-9.714V106.214c0-5.364,4.635-9.714,10.352-9.714
	H423.15z"/>
</svg>
