<?xml version="1.0" encoding="utf-8"?>
<!-- Generator: Adobe Illustrator 16.0.0, SVG Export Plug-In . SVG Version: 6.00 Build 0)  -->
<!DOCTYPE svg PUBLIC "-//W3C//DTD SVG 1.1//EN" "http://www.w3.org/Graphics/SVG/1.1/DTD/svg11.dtd">
<svg version="1.1" id="Layer_1" xmlns="http://www.w3.org/2000/svg" xmlns:xlink="http://www.w3.org/1999/xlink" x="0px" y="0px"
	 width="448px" height="512px" viewBox="0 0 448 512" enable-background="new 0 0 448 512" xml:space="preserve">
<path fill="none" stroke="currentColor" stroke-width="21" stroke-miterlimit="10" d="M222.5,493.277c0,6.75-2.687,12.223-6,12.223h-198
	c-3.313,0-6-5.473-6-12.223V24.723c0-6.75,2.687-12.223,6-12.223h198c3.313,0,6,5.473,6,12.223V493.277z"/>
<g>
	<path fill="none" stroke="currentColor" stroke-width="21" stroke-miterlimit="10" stroke-dasharray="12.037,12.037" d="M437.5,494.797
		c0,6.463-5.105,11.703-11.402,11.703H257.903c-6.297,0-11.402-5.24-11.402-11.703V25.203c0-6.463,5.105-11.703,11.402-11.703
		h168.195c6.297,0,11.402,5.24,11.402,11.703V494.797z"/>
</g>
</svg>
