<?xml version="1.0" encoding="utf-8"?>
<!-- Generator: Adobe Illustrator 16.0.0, SVG Export Plug-In . SVG Version: 6.00 Build 0)  -->
<!DOCTYPE svg PUBLIC "-//W3C//DTD SVG 1.1//EN" "http://www.w3.org/Graphics/SVG/1.1/DTD/svg11.dtd">
<svg version="1.1" id="Layer_1" xmlns="http://www.w3.org/2000/svg" xmlns:xlink="http://www.w3.org/1999/xlink" x="0px" y="0px"
	 width="448px" height="512px" viewBox="0 0 448 512" enable-background="new 0 0 448 512" xml:space="preserve">
<path fill="none" stroke="currentColor" stroke-width="21" stroke-miterlimit="10" d="M434.5,398.236c0,4.011-5.373,7.264-12,7.264h-396
	c-6.627,0-12-3.253-12-7.264V119.765c0-4.012,5.373-7.265,12-7.265h396c6.627,0,12,3.253,12,7.265V398.236z"/>
<line fill="none" stroke="currentColor" stroke-width="21" stroke-miterlimit="10" x1="84.5" y1="201.5" x2="84.5" y2="292.5"/>
<path d="M418.695,359.908c1.329-1.098,3.306-0.07,3.306,1.665V434c0,9.386-7.328,17-16.359,17H263.86
	c-9.032,0-16.359-7.614-16.359-17v-72.392c0-1.771,1.942-2.763,3.306-1.665c7.635,6.163,17.757,13.99,52.521,40.233
	c7.191,5.454,19.324,16.93,31.424,16.858c12.167,0.106,24.539-11.616,31.458-16.858C400.972,373.934,411.06,366.07,418.695,359.908z
	 M334.75,405.667c7.907,0.142,19.29-10.342,25.016-14.663c45.227-34.105,48.67-37.081,59.099-45.581
	c1.977-1.594,3.136-4.073,3.136-6.693V332c0-9.386-7.328-17-16.359-17H263.86c-9.032,0-16.359,7.614-16.359,17v6.729
	c0,2.62,1.158,5.064,3.136,6.693c10.429,8.465,13.871,11.476,59.099,45.581C315.459,395.325,326.843,405.809,334.75,405.667
	L334.75,405.667z"/>
</svg>
