<?xml version="1.0" encoding="utf-8"?>
<!-- Generator: Adobe Illustrator 16.0.0, SVG Export Plug-In . SVG Version: 6.00 Build 0)  -->
<!DOCTYPE svg PUBLIC "-//W3C//DTD SVG 1.1//EN" "http://www.w3.org/Graphics/SVG/1.1/DTD/svg11.dtd">
<svg version="1.1" id="Layer_1" xmlns="http://www.w3.org/2000/svg" xmlns:xlink="http://www.w3.org/1999/xlink" x="0px" y="0px"
	 width="448px" height="512px" viewBox="0 0 448 512" enable-background="new 0 0 448 512" xml:space="preserve">
<path d="M202.046,434.85l-35.553-12.39c-3.729-1.26-5.828-5.95-4.778-10.431L241.27,82.89c1.05-4.48,4.954-7,8.685-5.74
	l35.552,12.39c3.729,1.26,5.828,5.95,4.779,10.43L210.731,429.11C209.623,433.59,205.777,436.18,202.046,434.85z M135.604,356.311
	l25.353-32.48c2.681-3.43,2.506-8.891-0.467-12.04L107.687,256l52.804-55.79c2.973-3.15,3.206-8.61,0.467-12.04l-25.353-32.48
	c-2.623-3.36-7.052-3.57-9.908-0.35l-83.984,94.5c-2.973,3.29-2.973,8.96,0,12.25l83.984,94.57
	C128.552,359.88,132.981,359.74,135.604,356.311L135.604,356.311z M326.303,356.73l83.985-94.57c2.972-3.29,2.972-8.96,0-12.25
	l-83.985-94.64c-2.798-3.15-7.227-3.01-9.908,0.35l-25.353,32.48c-2.681,3.43-2.506,8.89,0.467,12.04L344.313,256l-52.804,55.79
	c-2.973,3.149-3.206,8.61-0.467,12.04l25.353,32.48C319.018,359.74,323.448,359.88,326.303,356.73L326.303,356.73z"/>
<path fill="none" stroke="currentColor" stroke-width="21" stroke-miterlimit="10" d="M433.5,490.277c0,6.75-5.373,12.223-12,12.223h-396
	c-6.627,0-12-5.473-12-12.223V21.723c0-6.75,5.373-12.223,12-12.223h396c6.627,0,12,5.473,12,12.223V490.277z"/>
</svg>
