<?xml version="1.0" encoding="utf-8"?>
<!-- Generator: Adobe Illustrator 16.0.0, SVG Export Plug-In . SVG Version: 6.00 Build 0)  -->
<!DOCTYPE svg PUBLIC "-//W3C//DTD SVG 1.1//EN" "http://www.w3.org/Graphics/SVG/1.1/DTD/svg11.dtd">
<svg version="1.1" id="Layer_1" xmlns="http://www.w3.org/2000/svg" xmlns:xlink="http://www.w3.org/1999/xlink" x="0px" y="0px"
	 width="448px" height="512px" viewBox="0 0 448 512" enable-background="new 0 0 448 512" xml:space="preserve">
<path d="M115.445,81.778h224c6.873,0,12.444,5.571,12.444,12.444v74.667c0,6.874-5.571,12.445-12.444,12.445h-27.608
	c-6.873,0-12.444-5.571-12.444-12.445v-37.333H256.8v248.889h26.645c6.873,0,12.444,5.571,12.444,12.444v24.889
	c0,6.874-5.571,12.445-12.444,12.445h-112c-6.873,0-12.444-5.571-12.444-12.445v-24.889c0-6.873,5.571-12.444,12.444-12.444h26.645
	V131.556h-42.592v37.333c0,6.874-5.571,12.445-12.445,12.445h-27.607c-6.873,0-12.444-5.571-12.444-12.445V94.222
	C103,87.349,108.572,81.778,115.445,81.778z"/>
</svg>
