<?xml version="1.0" encoding="utf-8"?>
<!-- Generator: Adobe Illustrator 16.0.0, SVG Export Plug-In . SVG Version: 6.00 Build 0)  -->
<!DOCTYPE svg PUBLIC "-//W3C//DTD SVG 1.1//EN" "http://www.w3.org/Graphics/SVG/1.1/DTD/svg11.dtd">
<svg version="1.1" id="Layer_1" xmlns="http://www.w3.org/2000/svg" xmlns:xlink="http://www.w3.org/1999/xlink" x="0px" y="0px"
	 width="448px" height="512px" viewBox="0 0 448 512" enable-background="new 0 0 448 512" xml:space="preserve">
<rect x="26" y="56" fill="none" stroke="currentColor" stroke-width="20" stroke-miterlimit="10" width="400" height="400"/>
<path d="M252.721,220.867c23.455,18.335,23.133,47.734,0.142,65.79c-0.044,0.036-0.095,0.075-0.142,0.112l-26.381,20.604
	c-23.27,18.172-61.125,18.169-84.389,0c-23.27-18.168-23.27-47.734,0-65.904l14.566-11.376c3.862-3.017,10.517-1.012,10.715,3.251
	c0.254,5.434,1.501,10.892,3.805,16.165c0.779,1.784,0.222,3.758-1.485,5.092l-5.138,4.012c-11.003,8.593-11.349,22.584-0.454,31.26
	c11.001,8.764,29.084,8.814,40.171,0.156l26.381-20.6c11.067-8.644,11.021-22.614,0-31.221c-1.453-1.132-2.916-2.012-4.06-2.627
	c-1.641-0.879-2.651-2.313-2.729-3.865c-0.156-3.24,1.314-6.579,4.593-9.138l8.267-6.455c2.167-1.692,5.566-1.901,8.08-0.53
	C247.542,217.164,250.238,218.928,252.721,220.867L252.721,220.867z M308.049,177.656c-23.266-18.169-61.121-18.171-84.389,0
	l-26.383,20.603c-0.047,0.037-0.098,0.077-0.141,0.113c-22.992,18.056-23.314,47.455,0.141,65.792
	c2.483,1.938,5.179,3.702,8.058,5.271c2.513,1.369,5.914,1.16,8.081-0.531l8.266-6.455c3.277-2.561,4.748-5.898,4.591-9.138
	c-0.073-1.553-1.086-2.985-2.727-3.864c-1.144-0.615-2.606-1.494-4.061-2.627c-11.021-8.607-11.066-22.577,0-31.22l26.383-20.6
	c11.086-8.658,29.168-8.605,40.17,0.156c10.894,8.676,10.549,22.667-0.453,31.259l-5.139,4.013
	c-1.708,1.333-2.265,3.308-1.484,5.092c2.302,5.272,3.55,10.731,3.805,16.165c0.199,4.263,6.854,6.268,10.715,3.252l14.567-11.376
	C331.317,225.391,331.317,195.824,308.049,177.656L308.049,177.656z"/>
</svg>
