<?xml version="1.0" encoding="utf-8"?>
<!-- Generator: Adobe Illustrator 16.0.0, SVG Export Plug-In . SVG Version: 6.00 Build 0)  -->
<!DOCTYPE svg PUBLIC "-//W3C//DTD SVG 1.1//EN" "http://www.w3.org/Graphics/SVG/1.1/DTD/svg11.dtd">
<svg version="1.1" id="Layer_1" xmlns="http://www.w3.org/2000/svg" xmlns:xlink="http://www.w3.org/1999/xlink" x="0px" y="0px"
	 width="448px" height="512px" viewBox="0 0 448 512" enable-background="new 0 0 448 512" xml:space="preserve">
<path fill="none" stroke="currentColor" stroke-width="21" stroke-miterlimit="10" d="M434.5,398.236c0,4.011-5.373,7.264-12,7.264h-396
	c-6.627,0-12-3.253-12-7.264V119.765c0-4.012,5.373-7.265,12-7.265h396c6.627,0,12,3.253,12,7.265V398.236z"/>
<g>
	<path d="M81.989,246.82c-0.225-3.863-1.008-7.698-2.352-11.506c-1.904-5.486-2.855-9.266-2.855-11.338
		c0-2.911,0.685-5.123,2.058-6.635c1.371-1.512,3.065-2.268,5.081-2.268c1.735,0,3.247,0.756,4.535,2.268
		c1.287,1.512,1.932,3.668,1.932,6.467c0,2.52-0.743,6.034-2.226,10.54c-1.484,4.508-2.394,8.665-2.729,12.472
		c3.079-1.959,5.85-4.338,8.314-7.139c3.807-4.422,6.635-7.166,8.482-8.23c1.848-1.063,3.723-1.596,5.627-1.596
		c1.848,0,3.401,0.63,4.661,1.89s1.89,2.758,1.89,4.493c0,2.072-0.924,3.92-2.771,5.543c-1.848,1.625-6.467,3.248-13.857,4.871
		c-4.312,0.953-7.895,2.044-10.75,3.275c2.911,1.512,6.467,2.66,10.666,3.443c6.774,1.232,11.212,2.771,13.312,4.619
		s3.149,3.863,3.149,6.047c0,1.68-0.63,3.137-1.89,4.367c-1.26,1.232-2.729,1.848-4.409,1.848s-3.542-0.588-5.585-1.764
		c-2.044-1.176-4.802-3.807-8.272-7.895c-2.296-2.742-5.152-5.318-8.566-7.727c0.111,3.191,0.756,6.664,1.932,10.414
		c2.016,6.607,3.023,11.115,3.023,13.521c0,2.24-0.672,4.13-2.016,5.669c-1.344,1.54-2.771,2.31-4.283,2.31
		c-2.072,0-3.947-0.811-5.627-2.436c-1.176-1.176-1.764-3.051-1.764-5.627c0-2.688,0.643-5.921,1.932-9.7
		c1.287-3.779,2.1-6.383,2.436-7.811s0.643-3.541,0.924-6.341c-3.304,2.184-6.188,4.619-8.65,7.307
		c-4.088,4.592-7.167,7.504-9.238,8.734c-1.457,0.896-2.968,1.344-4.535,1.344c-1.904,0-3.527-0.643-4.871-1.932
		c-1.344-1.287-2.016-2.715-2.016-4.283c0-1.398,0.573-2.869,1.722-4.409c1.147-1.539,2.869-2.813,5.165-3.821
		c1.512-0.672,4.955-1.567,10.33-2.688c3.471-0.727,6.858-1.791,10.162-3.191c-3.023-1.512-6.635-2.688-10.834-3.527
		c-6.887-1.455-11.143-2.771-12.766-3.947c-2.52-1.848-3.779-4.086-3.779-6.719c0-1.512,0.63-2.897,1.89-4.157
		s2.729-1.89,4.409-1.89c1.848,0,3.807,0.588,5.879,1.764c2.071,1.176,4.646,3.542,7.727,7.097
		C75.661,242.104,78.797,244.861,81.989,246.82z"/>
	<path d="M167.989,246.82c-0.225-3.863-1.008-7.698-2.352-11.506c-1.904-5.486-2.855-9.266-2.855-11.338
		c0-2.911,0.685-5.123,2.058-6.635c1.371-1.512,3.065-2.268,5.081-2.268c1.734,0,3.246,0.756,4.535,2.268
		c1.287,1.512,1.932,3.668,1.932,6.467c0,2.52-0.743,6.034-2.226,10.54c-1.484,4.508-2.394,8.665-2.729,12.472
		c3.078-1.959,5.85-4.338,8.314-7.139c3.807-4.422,6.635-7.166,8.482-8.23c1.848-1.063,3.723-1.596,5.627-1.596
		c1.848,0,3.401,0.63,4.661,1.89s1.89,2.758,1.89,4.493c0,2.072-0.924,3.92-2.771,5.543c-1.848,1.625-6.467,3.248-13.857,4.871
		c-4.313,0.953-7.895,2.044-10.75,3.275c2.91,1.512,6.467,2.66,10.666,3.443c6.773,1.232,11.212,2.771,13.312,4.619
		s3.149,3.863,3.149,6.047c0,1.68-0.63,3.137-1.89,4.367c-1.26,1.232-2.729,1.848-4.409,1.848s-3.542-0.588-5.585-1.764
		c-2.045-1.176-4.802-3.807-8.272-7.895c-2.297-2.742-5.152-5.318-8.566-7.727c0.111,3.191,0.756,6.664,1.932,10.414
		c2.016,6.607,3.023,11.115,3.023,13.521c0,2.24-0.672,4.13-2.016,5.669c-1.344,1.54-2.771,2.31-4.283,2.31
		c-2.072,0-3.947-0.811-5.627-2.436c-1.176-1.176-1.764-3.051-1.764-5.627c0-2.688,0.643-5.921,1.932-9.7
		c1.287-3.779,2.1-6.383,2.436-7.811s0.643-3.541,0.924-6.341c-3.304,2.184-6.188,4.619-8.65,7.307
		c-4.088,4.592-7.167,7.504-9.238,8.734c-1.457,0.896-2.968,1.344-4.535,1.344c-1.904,0-3.527-0.643-4.871-1.932
		c-1.344-1.287-2.016-2.715-2.016-4.283c0-1.398,0.573-2.869,1.722-4.409c1.147-1.539,2.869-2.813,5.165-3.821
		c1.512-0.672,4.955-1.567,10.33-2.688c3.471-0.727,6.858-1.791,10.162-3.191c-3.023-1.512-6.635-2.688-10.834-3.527
		c-6.887-1.455-11.143-2.771-12.766-3.947c-2.52-1.848-3.779-4.086-3.779-6.719c0-1.512,0.63-2.897,1.89-4.157
		s2.729-1.89,4.409-1.89c1.848,0,3.807,0.588,5.879,1.764c2.071,1.176,4.646,3.542,7.727,7.097
		C161.661,242.104,164.797,244.861,167.989,246.82z"/>
	<path d="M253.989,246.82c-0.225-3.863-1.008-7.698-2.352-11.506c-1.904-5.486-2.855-9.266-2.855-11.338
		c0-2.911,0.685-5.123,2.058-6.635c1.371-1.512,3.065-2.268,5.081-2.268c1.734,0,3.246,0.756,4.535,2.268
		c1.287,1.512,1.932,3.668,1.932,6.467c0,2.52-0.743,6.034-2.226,10.54c-1.484,4.508-2.394,8.665-2.729,12.472
		c3.078-1.959,5.85-4.338,8.314-7.139c3.807-4.422,6.635-7.166,8.482-8.23c1.848-1.063,3.723-1.596,5.627-1.596
		c1.848,0,3.401,0.63,4.661,1.89s1.89,2.758,1.89,4.493c0,2.072-0.924,3.92-2.771,5.543c-1.848,1.625-6.467,3.248-13.857,4.871
		c-4.313,0.953-7.895,2.044-10.75,3.275c2.91,1.512,6.467,2.66,10.666,3.443c6.773,1.232,11.212,2.771,13.312,4.619
		s3.149,3.863,3.149,6.047c0,1.68-0.63,3.137-1.89,4.367c-1.26,1.232-2.729,1.848-4.409,1.848s-3.542-0.588-5.585-1.764
		c-2.045-1.176-4.802-3.807-8.272-7.895c-2.297-2.742-5.152-5.318-8.566-7.727c0.111,3.191,0.756,6.664,1.932,10.414
		c2.016,6.607,3.023,11.115,3.023,13.521c0,2.24-0.672,4.13-2.016,5.669c-1.344,1.54-2.771,2.31-4.283,2.31
		c-2.072,0-3.947-0.811-5.627-2.436c-1.176-1.176-1.764-3.051-1.764-5.627c0-2.688,0.643-5.921,1.932-9.7
		c1.287-3.779,2.1-6.383,2.436-7.811s0.643-3.541,0.924-6.341c-3.305,2.184-6.188,4.619-8.65,7.307
		c-4.088,4.592-7.168,7.504-9.238,8.734c-1.457,0.896-2.969,1.344-4.535,1.344c-1.904,0-3.527-0.643-4.871-1.932
		c-1.344-1.287-2.016-2.715-2.016-4.283c0-1.398,0.573-2.869,1.722-4.409c1.146-1.539,2.868-2.813,5.165-3.821
		c1.512-0.672,4.955-1.567,10.33-2.688c3.471-0.727,6.857-1.791,10.162-3.191c-3.023-1.512-6.635-2.688-10.834-3.527
		c-6.887-1.455-11.143-2.771-12.766-3.947c-2.52-1.848-3.779-4.086-3.779-6.719c0-1.512,0.63-2.897,1.89-4.157
		s2.729-1.89,4.409-1.89c1.848,0,3.807,0.588,5.879,1.764c2.07,1.176,4.646,3.542,7.727,7.097
		C247.66,242.104,250.797,244.861,253.989,246.82z"/>
</g>
<path d="M408.874,391h-8.062v-22.57c0-26.27-22.91-47.648-51.063-47.648c-28.151,0-51.063,21.379-51.063,47.648V391h-8.062
	c-8.902,0-16.126,6.741-16.126,15.047v60.188c0,8.306,7.224,15.047,16.126,15.047h118.248c8.902,0,16.126-6.741,16.126-15.047
	v-60.188C425,397.741,417.777,391,408.874,391z M373.938,391h-48.375v-22.57c0-12.445,10.85-22.57,24.188-22.57
	s24.188,10.125,24.188,22.57V391z"/>
</svg>
