<?xml version="1.0" encoding="utf-8"?>
<!-- Generator: Adobe Illustrator 16.0.0, SVG Export Plug-In . SVG Version: 6.00 Build 0)  -->
<!DOCTYPE svg PUBLIC "-//W3C//DTD SVG 1.1//EN" "http://www.w3.org/Graphics/SVG/1.1/DTD/svg11.dtd">
<svg version="1.1" id="Layer_1" xmlns="http://www.w3.org/2000/svg" xmlns:xlink="http://www.w3.org/1999/xlink" x="0px" y="0px"
	 width="448px" height="512px" viewBox="0 0 448 512" enable-background="new 0 0 448 512" xml:space="preserve">
<path fill="none" stroke="currentColor" stroke-width="21" stroke-miterlimit="10" d="M426.876,37c5.867,0,10.624,2.688,10.624,6v198
	c0,3.313-4.757,6-10.624,6H19.624C13.758,247,9,244.313,9,241V43c0-3.313,4.757-6,10.624-6H426.876z"/>
<g>
	<path fill="none" stroke="currentColor" stroke-width="21" stroke-miterlimit="10" stroke-dasharray="12.037,12.037" d="
		M427.328,286.501c5.617,0,10.172,5.105,10.172,11.402v168.195c0,6.297-4.555,11.401-10.172,11.401H19.173
		C13.555,477.5,9,472.396,9,466.099V297.903c0-6.297,4.555-11.402,10.172-11.402H427.328L427.328,286.501z"/>
</g>
</svg>
