<?xml version="1.0" encoding="utf-8"?>
<!-- Generator: Adobe Illustrator 16.0.0, SVG Export Plug-In . SVG Version: 6.00 Build 0)  -->
<!DOCTYPE svg PUBLIC "-//W3C//DTD SVG 1.1//EN" "http://www.w3.org/Graphics/SVG/1.1/DTD/svg11.dtd">
<svg version="1.1" id="Layer_1" xmlns="http://www.w3.org/2000/svg" xmlns:xlink="http://www.w3.org/1999/xlink" x="0px" y="0px"
	 width="448px" height="512px" viewBox="0 0 448 512" enable-background="new 0 0 448 512" xml:space="preserve">
<rect x="11.5" y="39.5" fill="none" stroke="currentColor" stroke-width="20" stroke-miterlimit="10" width="430" height="430"/>
<g>
	<path d="M146.638,178.464l0.784,39.908H144.5c-1.38-10.006-4.767-18.056-10.161-24.148c-5.396-6.092-11.23-9.138-17.505-9.138
		c-4.848,0-8.688,1.604-11.516,4.812c-2.828,3.209-4.243,6.901-4.243,11.081c0,2.649,0.5,5.003,1.498,7.063
		c1.378,2.768,3.588,5.505,6.631,8.211c2.234,1.942,7.391,5.386,15.473,10.33c11.312,6.887,18.941,13.392,22.888,19.513
		c3.897,6.123,5.847,13.126,5.847,21.014c0,10.008-3.149,18.614-9.448,25.826c-6.299,7.211-14.296,10.815-23.994,10.815
		c-3.042,0-5.917-0.383-8.627-1.147c-2.709-0.766-6.108-2.208-10.196-4.326c-2.282-1.178-4.16-1.767-5.633-1.767
		c-1.236,0-2.542,0.589-3.922,1.767c-1.379,1.176-2.495,2.972-3.351,5.385h-2.639v-45.206h2.639
		c2.091,12.715,6.12,22.413,12.085,29.093c5.965,6.682,12.396,10.021,19.288,10.021c5.323,0,9.565-1.795,12.728-5.386
		c3.161-3.591,4.741-7.77,4.741-12.538c0-2.825-0.606-5.562-1.819-8.211c-1.211-2.648-3.054-5.165-5.525-7.549
		c-2.472-2.385-6.845-5.487-13.12-9.315c-8.795-5.355-15.116-9.919-18.967-13.686c-3.85-3.766-6.81-7.976-8.877-12.626
		c-2.068-4.648-3.102-9.77-3.102-15.363c0-9.536,2.828-17.659,8.485-24.369c5.658-6.71,12.787-10.065,21.391-10.065
		c3.138,0,6.18,0.472,9.128,1.412c2.233,0.707,4.955,2.017,8.164,3.929c3.209,1.913,5.455,2.869,6.738,2.869
		c1.237,0,2.211-0.47,2.924-1.413c0.713-0.94,1.378-3.208,1.997-6.798H146.638z"/>
	<path d="M263.219,181.201v3.267c-3.518,0.707-6.655,3.033-9.412,6.975c-1.995,2.944-4.968,9.86-8.912,20.749l-33.299,91.472h-2.353
		l-33.156-95.18c-3.993-11.479-6.666-18.218-8.021-20.219c-1.354-2-3.911-3.267-7.665-3.797v-3.267h46.347v3.267h-1.568
		c-4.183,0-7.036,0.648-8.557,1.942c-1.093,0.883-1.64,2.178-1.64,3.885c0,1.06,0.19,2.311,0.57,3.752
		c0.38,1.443,1.664,5.313,3.851,11.611l20.606,59.598l19.109-53.064c2.282-6.415,3.684-10.712,4.208-12.891
		c0.522-2.176,0.784-4.03,0.784-5.563c0-1.766-0.381-3.324-1.142-4.679c-0.761-1.354-1.878-2.384-3.351-3.09
		c-2.044-1.001-4.755-1.501-8.129-1.501v-3.267H263.219z"/>
	<path d="M365.469,178.464v42.204h-2.64c-3.185-11.536-7.962-20.307-14.333-26.311c-6.368-6.004-13.333-9.006-20.89-9.006
		c-7.227,0-13.24,2.516-18.04,7.549c-4.802,5.033-8.2,12.052-10.197,21.058c-1.996,9.006-2.994,18.248-2.994,27.724
		c0,11.479,1.093,21.544,3.279,30.197c2.188,8.653,5.718,15.01,10.589,19.071c4.873,4.063,10.66,6.092,17.363,6.092
		c2.328,0,4.717-0.309,7.165-0.927s4.956-1.516,7.522-2.692v-24.898c0-4.709-0.262-7.756-0.783-9.139
		c-0.523-1.383-1.605-2.635-3.246-3.753c-1.64-1.117-3.623-1.678-5.952-1.678h-2.497v-3.267h46.989v3.267
		c-3.564,0.296-6.048,0.897-7.451,1.81c-1.403,0.914-2.483,2.429-3.244,4.547c-0.428,1.118-0.641,3.855-0.641,8.212v24.898
		c-6.181,3.414-12.609,5.989-19.288,7.726s-13.606,2.604-20.785,2.604c-9.175,0-16.792-1.545-22.854-4.636
		c-6.06-3.089-11.407-7.151-16.042-12.185c-4.636-5.032-8.26-10.696-10.875-16.996c-3.327-8.123-4.99-17.217-4.99-27.283
		c0-18.012,5.11-33.228,15.33-45.647c10.22-12.418,23.078-18.63,38.574-18.63c4.802,0,9.128,0.473,12.978,1.413
		c2.092,0.472,5.479,1.81,10.161,4.018c4.681,2.208,7.451,3.311,8.306,3.311c1.332,0,2.568-0.604,3.709-1.81
		c1.14-1.205,2.187-3.488,3.137-6.842H365.469z"/>
</g>
</svg>
