<?xml version="1.0" encoding="utf-8"?>
<!-- Generator: Adobe Illustrator 16.0.0, SVG Export Plug-In . SVG Version: 6.00 Build 0)  -->
<!DOCTYPE svg PUBLIC "-//W3C//DTD SVG 1.1//EN" "http://www.w3.org/Graphics/SVG/1.1/DTD/svg11.dtd">
<svg version="1.1" id="Layer_1" xmlns="http://www.w3.org/2000/svg" xmlns:xlink="http://www.w3.org/1999/xlink" x="0px" y="0px"
	 width="448px" height="512px" viewBox="0 0 448 512" enable-background="new 0 0 448 512" xml:space="preserve">
<g>
	<path d="M136.567,243.724h174.082V120.638c0-21.993-1.198-36.482-3.593-43.461c-1.842-5.284-5.711-9.834-11.605-13.641
		c-7.921-5.076-16.303-7.614-25.145-7.614h-13.263V44.185H417.31v11.737h-13.264c-8.843,0-17.228,2.434-25.146,7.296
		c-5.897,3.385-9.905,8.516-12.02,15.386c-2.122,6.875-3.178,20.888-3.178,42.033v277.578c0,21.785,1.194,36.164,3.591,43.145
		c1.839,5.288,5.616,9.833,11.33,13.641c8.104,5.075,16.579,7.612,25.422,7.612h13.264v11.738H257.043v-11.738h13.263
		c15.289,0,26.431-5.18,33.435-15.544c4.603-6.766,6.908-23.049,6.908-48.854V267.198H136.567v131.018
		c0,21.785,1.196,36.164,3.592,43.145c1.839,5.288,5.708,9.833,11.605,13.641c7.918,5.075,16.303,7.612,25.145,7.612h13.541v11.738
		H29.906v-11.738h13.263c15.474,0,26.709-5.18,33.712-15.544c4.421-6.766,6.632-23.049,6.632-48.854V120.638
		c0-21.993-1.2-36.482-3.593-43.461c-1.843-5.284-5.621-9.834-11.329-13.641c-8.108-5.076-16.579-7.614-25.422-7.614H29.906V44.185
		h160.543v11.737h-13.541c-8.841,0-17.227,2.434-25.145,7.296c-5.712,3.385-9.671,8.516-11.882,15.386
		c-2.21,6.875-3.315,20.888-3.315,42.033V243.724z"/>
</g>
</svg>
