<?xml version="1.0" encoding="utf-8"?>
<!-- Generator: Adobe Illustrator 16.0.0, SVG Export Plug-In . SVG Version: 6.00 Build 0)  -->
<!DOCTYPE svg PUBLIC "-//W3C//DTD SVG 1.1//EN" "http://www.w3.org/Graphics/SVG/1.1/DTD/svg11.dtd">
<svg version="1.1" id="Layer_1" xmlns="http://www.w3.org/2000/svg" xmlns:xlink="http://www.w3.org/1999/xlink" x="0px" y="0px"
	 width="448px" height="512px" viewBox="0 0 448 512" enable-background="new 0 0 448 512" xml:space="preserve">
<path d="M141,460.5h40c8.837,0,16-7.163,16-16v-416c0-8.837-7.163-16-16-16h-40c-8.837,0-16,7.163-16,16v416
	C125,453.337,132.163,460.5,141,460.5z M253,131.5v256c0,8.837,7.163,16,16,16h40c8.837,0,16-7.163,16-16v-256
	c0-8.837-7.163-16-16-16h-40C260.163,115.5,253,122.663,253,131.5z M13,237h422v42.5H13V237z"/>
</svg>
