<?xml version="1.0" encoding="utf-8"?>
<!-- Generator: Adobe Illustrator 16.0.0, SVG Export Plug-In . SVG Version: 6.00 Build 0)  -->
<!DOCTYPE svg PUBLIC "-//W3C//DTD SVG 1.1//EN" "http://www.w3.org/Graphics/SVG/1.1/DTD/svg11.dtd">
<svg version="1.1" id="Layer_1" xmlns="http://www.w3.org/2000/svg" xmlns:xlink="http://www.w3.org/1999/xlink" x="0px" y="0px"
	 width="448px" height="512px" viewBox="0 0 448 512" enable-background="new 0 0 448 512" xml:space="preserve">
<path d="M309,56h-40c-8.837,0-16,7.163-16,16v416c0,8.837,7.163,16,16,16h40c8.837,0,16-7.163,16-16V72
	C325,63.163,317.837,56,309,56z M197,325V69c0-8.837-7.163-16-16-16h-40c-8.837,0-16,7.163-16,16v256c0,8.837,7.163,16,16,16h40
	C189.837,341,197,333.837,197,325z M436.5,218.5h-422V176h422V218.5z M188.5,167.5h-55v-104h55V167.5z M316.5,169.5h-55v-104h55
	V169.5z"/>
</svg>
