<?xml version="1.0" encoding="utf-8"?>
<!-- Generator: Adobe Illustrator 16.0.0, SVG Export Plug-In . SVG Version: 6.00 Build 0)  -->
<!DOCTYPE svg PUBLIC "-//W3C//DTD SVG 1.1//EN" "http://www.w3.org/Graphics/SVG/1.1/DTD/svg11.dtd">
<svg version="1.1" id="Layer_1" xmlns="http://www.w3.org/2000/svg" xmlns:xlink="http://www.w3.org/1999/xlink" x="0px" y="0px"
	 width="448px" height="512px" viewBox="0 0 448 512" enable-background="new 0 0 448 512" xml:space="preserve">
<path d="M141,461.5h40c8.837,0,16-7.179,16-16.036V28.536c0-8.856-7.163-16.036-16-16.036h-40c-8.837,0-16,7.179-16,16.036v416.928
	C125,454.321,132.163,461.5,141,461.5z M253,38.973v399.556c0,13.792,7.163,24.972,16,24.972h40c8.837,0,16-11.18,16-24.972V38.973
	C325,25.181,317.837,14,309,14h-40C260.163,14,253,25.181,253,38.973z M13.5,461.5h422V504h-422V461.5z M12.5,14h422v42.5h-422V14z"
	/>
</svg>
