<?xml version="1.0" encoding="utf-8"?>
<!-- Generator: Adobe Illustrator 16.0.0, SVG Export Plug-In . SVG Version: 6.00 Build 0)  -->
<!DOCTYPE svg PUBLIC "-//W3C//DTD SVG 1.1//EN" "http://www.w3.org/Graphics/SVG/1.1/DTD/svg11.dtd">
<svg version="1.1" id="Layer_1" xmlns="http://www.w3.org/2000/svg" xmlns:xlink="http://www.w3.org/1999/xlink" x="0px" y="0px"
	 width="448px" height="512px" viewBox="0 0 448 512" enable-background="new 0 0 448 512" xml:space="preserve">
<path fill="currentColor" d="M240,225h-32c-8.837,0-16,7.164-16,16v32c0,8.836,7.163,16,16,16h32c8.836,0,16-7.164,16-16v-32
	C256,232.164,248.836,225,240,225z M336,225h-32c-8.837,0-16,7.164-16,16v32c0,8.836,7.163,16,16,16h32c8.836,0,16-7.164,16-16v-32
	C352,232.164,344.836,225,336,225z M432,225h-32c-8.837,0-16,7.164-16,16v32c0,8.836,7.163,16,16,16h32c8.836,0,16-7.164,16-16v-32
	C448,232.164,440.836,225,432,225z M144,225h-32c-8.837,0-16,7.164-16,16v32c0,8.836,7.163,16,16,16h32c8.836,0,16-7.164,16-16v-32
	C160,232.164,152.836,225,144,225z M240,417h-32c-8.837,0-16,7.163-16,16v32c0,8.837,7.163,16,16,16h32c8.836,0,16-7.163,16-16v-32
	C256,424.163,248.836,417,240,417z M336,417h-32c-8.837,0-16,7.163-16,16v32c0,8.837,7.163,16,16,16h32c8.836,0,16-7.163,16-16v-32
	C352,424.163,344.836,417,336,417z M432,417h-32c-8.837,0-16,7.163-16,16v32c0,8.837,7.163,16,16,16h32c8.836,0,16-7.163,16-16v-32
	C448,424.163,440.836,417,432,417z M432,321h-32c-8.837,0-16,7.164-16,16v32c0,8.836,7.163,16,16,16h32c8.836,0,16-7.164,16-16v-32
	C448,328.164,440.836,321,432,321z M432,129h-32c-8.837,0-16,7.164-16,16v32c0,8.836,7.163,16,16,16h32c8.836,0,16-7.164,16-16v-32
	C448,136.164,440.836,129,432,129z M240,321h-32c-8.837,0-16,7.164-16,16v32c0,8.836,7.163,16,16,16h32c8.836,0,16-7.164,16-16v-32
	C256,328.164,248.836,321,240,321z M240,129h-32c-8.837,0-16,7.164-16,16v32c0,8.836,7.163,16,16,16h32c8.836,0,16-7.164,16-16v-32
	C256,136.164,248.836,129,240,129z M144,417h-32c-8.837,0-16,7.163-16,16v32c0,8.837,7.163,16,16,16h32c8.836,0,16-7.163,16-16v-32
	C160,424.163,152.836,417,144,417z M240,33h-32c-8.837,0-16,7.164-16,16v32c0,8.836,7.163,16,16,16h32c8.836,0,16-7.164,16-16V49
	C256,40.164,248.836,33,240,33z M336,33h-32c-8.837,0-16,7.164-16,16v32c0,8.836,7.163,16,16,16h32c8.836,0,16-7.164,16-16V49
	C352,40.164,344.836,33,336,33z M432,33h-32c-8.837,0-16,7.164-16,16v32c0,8.836,7.163,16,16,16h32c8.836,0,16-7.164,16-16V49
	C448,40.164,440.836,33,432,33z M64,480H0V32h64V480z M144,33h-32c-8.837,0-16,7.164-16,16v32c0,8.836,7.163,16,16,16h32
	c8.836,0,16-7.164,16-16V49C160,40.164,152.836,33,144,33z"/>
<g>
</g>
<g>
</g>
<g>
</g>
<g>
</g>
<g>
</g>
<g>
</g>
</svg>
