<?xml version="1.0" encoding="utf-8"?>
<!-- Generator: Adobe Illustrator 16.0.0, SVG Export Plug-In . SVG Version: 6.00 Build 0)  -->
<!DOCTYPE svg PUBLIC "-//W3C//DTD SVG 1.1//EN" "http://www.w3.org/Graphics/SVG/1.1/DTD/svg11.dtd">
<svg version="1.1" id="Layer_1" xmlns="http://www.w3.org/2000/svg" xmlns:xlink="http://www.w3.org/1999/xlink" x="0px" y="0px"
	 width="448px" height="512px" viewBox="0 0 448 512" enable-background="new 0 0 448 512" xml:space="preserve">
<path d="M240,224h-32c-8.837,0-16,7.164-16,16v32c0,8.836,7.163,16,16,16h32c8.836,0,16-7.164,16-16v-32
	C256,231.164,248.836,224,240,224z M336,224h-32c-8.837,0-16,7.164-16,16v32c0,8.836,7.163,16,16,16h32c8.836,0,16-7.164,16-16v-32
	C352,231.164,344.836,224,336,224z M432,224h-32c-8.837,0-16,7.164-16,16v32c0,8.836,7.163,16,16,16h32c8.836,0,16-7.164,16-16v-32
	C448,231.164,440.836,224,432,224z M144,224h-32c-8.837,0-16,7.164-16,16v32c0,8.836,7.163,16,16,16h32c8.836,0,16-7.164,16-16v-32
	C160,231.164,152.836,224,144,224z M432,320h-32c-8.837,0-16,7.164-16,16v32c0,8.836,7.163,16,16,16h32c8.836,0,16-7.164,16-16v-32
	C448,327.164,440.836,320,432,320z M432,128h-32c-8.837,0-16,7.164-16,16v32c0,8.836,7.163,16,16,16h32c8.836,0,16-7.164,16-16v-32
	C448,135.164,440.836,128,432,128z M240,320h-32c-8.837,0-16,7.164-16,16v32c0,8.836,7.163,16,16,16h32c8.836,0,16-7.164,16-16v-32
	C256,327.164,248.836,320,240,320z M240,128h-32c-8.837,0-16,7.164-16,16v32c0,8.836,7.163,16,16,16h32c8.836,0,16-7.164,16-16v-32
	C256,135.164,248.836,128,240,128z M240,32h-32c-8.837,0-16,7.164-16,16v32c0,8.836,7.163,16,16,16h32c8.836,0,16-7.164,16-16V48
	C256,39.164,248.836,32,240,32z M336,32h-32c-8.837,0-16,7.164-16,16v32c0,8.836,7.163,16,16,16h32c8.836,0,16-7.164,16-16V48
	C352,39.164,344.836,32,336,32z M432,32h-32c-8.837,0-16,7.164-16,16v32c0,8.836,7.163,16,16,16h32c8.836,0,16-7.164,16-16V48
	C448,39.164,440.836,32,432,32z M48,224H16c-8.837,0-16,7.164-16,16v32c0,8.836,7.163,16,16,16h32c8.836,0,16-7.164,16-16v-32
	C64,231.164,56.836,224,48,224z M48,320H16c-8.837,0-16,7.164-16,16v32c0,8.836,7.163,16,16,16h32c8.836,0,16-7.164,16-16v-32
	C64,327.164,56.836,320,48,320z M48,128H16c-8.837,0-16,7.164-16,16v32c0,8.836,7.163,16,16,16h32c8.836,0,16-7.164,16-16v-32
	C64,135.164,56.836,128,48,128z M48,32H16C7.163,32,0,39.164,0,48v32c0,8.836,7.163,16,16,16h32c8.836,0,16-7.164,16-16V48
	C64,39.164,56.836,32,48,32z M144,32h-32c-8.837,0-16,7.164-16,16v32c0,8.836,7.163,16,16,16h32c8.836,0,16-7.164,16-16V48
	C160,39.164,152.836,32,144,32z M448,480H0v-65h448V480z"/>
</svg>
