<?xml version="1.0" encoding="utf-8"?>
<!-- Generator: Adobe Illustrator 16.0.0, SVG Export Plug-In . SVG Version: 6.00 Build 0)  -->
<!DOCTYPE svg PUBLIC "-//W3C//DTD SVG 1.1//EN" "http://www.w3.org/Graphics/SVG/1.1/DTD/svg11.dtd">
<svg version="1.1" id="Layer_1" xmlns="http://www.w3.org/2000/svg" xmlns:xlink="http://www.w3.org/1999/xlink" x="0px" y="0px"
	 width="448px" height="512px" viewBox="0 0 448 512" enable-background="new 0 0 448 512" xml:space="preserve">
<g enable-background="new    ">
	<path fill="currentColor" d="M252.084,355.036h-55.181l-21.936-66.913H74.545l-20.736,66.913h-53.81L97.851,60.459h53.639
		L252.084,355.036z M158.688,238.492l-34.617-109.311L90.14,238.492H158.688z"/>
	<path fill="currentColor" d="M314.634,206.743l-43.699-9.243c4.911-20.627,13.367-35.899,25.363-45.814
		c11.996-9.912,29.818-14.87,53.467-14.87c21.478,0,37.472,2.983,47.984,8.942c10.51,5.962,17.908,13.532,22.192,22.706
		c4.284,9.177,6.426,26.021,6.426,50.536l-0.514,65.908c0,18.757,0.771,32.587,2.313,41.494c1.542,8.91,4.426,18.455,8.654,28.634
		H389.18c-1.258-3.749-2.801-9.31-4.627-16.678c-0.8-3.347-1.37-5.558-1.713-6.631c-8.227,9.378-17.025,16.411-26.392,21.099
		c-9.369,4.688-19.364,7.032-29.989,7.032c-18.738,0-33.503-5.959-44.3-17.883c-10.796-11.922-16.194-26.992-16.194-45.212
		c0-12.057,2.456-22.807,7.369-32.251c4.911-9.444,11.795-16.677,20.65-21.701c8.852-5.023,21.619-9.409,38.301-13.161
		c22.506-4.955,38.101-9.576,46.784-13.865v-5.626c0-10.851-2.287-18.587-6.854-23.208c-4.571-4.622-13.196-6.932-25.877-6.932
		c-8.568,0-15.252,1.978-20.051,5.927C321.489,189.899,317.604,196.831,314.634,206.743z M379.069,252.557
		c-6.169,2.412-15.938,5.293-29.305,8.64c-13.366,3.351-22.106,6.632-26.22,9.847c-6.284,5.225-9.425,11.855-9.425,19.893
		c0,7.906,2.512,14.737,7.54,20.496c5.026,5.761,11.423,8.641,19.193,8.641c8.682,0,16.966-3.348,24.849-10.048
		c5.827-5.089,9.653-11.318,11.482-18.687c1.256-4.823,1.885-13.997,1.885-27.529V252.557z"/>
</g>
<g>
</g>
<g>
</g>
<g>
</g>
<g>
</g>
<g>
</g>
<g>
</g>
</svg>
