<?xml version="1.0" encoding="utf-8"?>
<!-- Generator: Adobe Illustrator 16.0.0, SVG Export Plug-In . SVG Version: 6.00 Build 0)  -->
<!DOCTYPE svg PUBLIC "-//W3C//DTD SVG 1.1//EN" "http://www.w3.org/Graphics/SVG/1.1/DTD/svg11.dtd">
<svg version="1.1" id="Layer_1" xmlns="http://www.w3.org/2000/svg" xmlns:xlink="http://www.w3.org/1999/xlink" x="0px" y="0px"
	 width="448px" height="512px" viewBox="0 0 448 512" enable-background="new 0 0 448 512" xml:space="preserve">
<path d="M164.499,390.75h40c8.837,0,16-3.996,16-8.928V149.678c0-4.931-7.163-8.928-16-8.928h-40c-8.837,0-16,3.997-16,8.928
	v232.144C148.499,386.753,155.662,390.75,164.499,390.75z M59.5,47.25v422H17v-422H59.5z M312.499,389.75h40
	c8.837,0,16-3.996,16-8.928V148.678c0-4.931-7.163-8.928-16-8.928h-40c-8.837,0-16,3.997-16,8.928v232.144
	C296.499,385.753,303.662,389.75,312.499,389.75z"/>
</svg>
