<?xml version="1.0" encoding="utf-8"?>
<!-- Generator: Adobe Illustrator 16.0.0, SVG Export Plug-In . SVG Version: 6.00 Build 0)  -->
<!DOCTYPE svg PUBLIC "-//W3C//DTD SVG 1.1//EN" "http://www.w3.org/Graphics/SVG/1.1/DTD/svg11.dtd">
<svg version="1.1" id="Layer_1" xmlns="http://www.w3.org/2000/svg" xmlns:xlink="http://www.w3.org/1999/xlink" x="0px" y="0px"
	 width="448px" height="512px" viewBox="0 0 448 512" enable-background="new 0 0 448 512" xml:space="preserve">
<path d="M383.499,124.75h-40c-8.837,0-16,3.996-16,8.928v232.145c0,4.931,7.163,8.928,16,8.928h40c8.837,0,16-3.997,16-8.928
	V133.679C399.499,128.747,392.336,124.75,383.499,124.75z M200.999,467.25v-422h42.5v422H200.999z M104,124.75H64
	c-8.837,0-16,3.996-16,8.928v232.145c0,4.931,7.163,8.928,16,8.928h40c8.837,0,16-3.997,16-8.928V133.679
	C120,128.747,112.837,124.75,104,124.75z"/>
</svg>
