<?xml version="1.0" encoding="utf-8"?>
<!-- Generator: Adobe Illustrator 16.0.0, SVG Export Plug-In . SVG Version: 6.00 Build 0)  -->
<!DOCTYPE svg PUBLIC "-//W3C//DTD SVG 1.1//EN" "http://www.w3.org/Graphics/SVG/1.1/DTD/svg11.dtd">
<svg version="1.1" id="Layer_1" xmlns="http://www.w3.org/2000/svg" xmlns:xlink="http://www.w3.org/1999/xlink" x="0px" y="0px"
	 width="448px" height="512px" viewBox="0 0 448 512" enable-background="new 0 0 448 512" xml:space="preserve">
<g enable-background="new    ">
	<path fill="currentColor" d="M69.811,204.783l-49.865-9.303c5.604-20.761,15.253-36.131,28.941-46.11
		c13.688-9.976,34.025-14.966,61.011-14.966c24.508,0,42.758,3.002,54.754,9c11.993,6,20.435,13.619,25.324,22.853
		c4.889,9.236,7.333,26.189,7.333,50.863l-0.587,66.334c0,18.878,0.88,32.797,2.64,41.762c1.76,8.969,5.051,18.574,9.875,28.819
		h-54.362c-1.436-3.773-3.196-9.369-5.28-16.786c-0.914-3.368-1.564-5.593-1.956-6.674c-9.387,9.439-19.427,16.518-30.115,21.235
		c-10.691,4.718-22.097,7.078-34.221,7.078c-21.382,0-38.229-5.997-50.549-17.999c-12.319-11.998-18.479-27.166-18.479-45.504
		c0-12.134,2.802-22.954,8.409-32.459c5.604-9.505,13.459-16.786,23.564-21.842c10.101-5.056,24.669-9.471,43.705-13.247
		c25.681-4.987,43.476-9.638,53.385-13.955v-5.663c0-10.921-2.609-18.707-7.822-23.359c-5.216-4.651-15.058-6.977-29.528-6.977
		c-9.778,0-17.404,1.991-22.879,5.966C77.632,187.83,73.199,194.807,69.811,204.783z M143.337,250.894
		c-7.04,2.427-18.186,5.328-33.439,8.696c-15.253,3.371-25.226,6.674-29.919,9.909c-7.171,5.259-10.755,11.933-10.755,20.022
		c0,7.956,2.866,14.832,8.604,20.628c5.735,5.799,13.035,8.696,21.901,8.696c9.906,0,19.359-3.368,28.354-10.112
		c6.649-5.122,11.015-11.392,13.102-18.808c1.433-4.854,2.151-14.088,2.151-27.707V250.894z"/>
	<path fill="currentColor" d="M292.541,204.783l-49.865-9.303c5.604-20.761,15.253-36.131,28.941-46.11
		c13.688-9.976,34.025-14.966,61.012-14.966c24.508,0,42.758,3.002,54.753,9c11.993,6,20.436,13.619,25.324,22.853
		c4.889,9.236,7.333,26.189,7.333,50.863l-0.587,66.334c0,18.878,0.88,32.797,2.64,41.762c1.761,8.969,5.051,18.574,9.876,28.819
		h-54.363c-1.436-3.773-3.195-9.369-5.279-16.786c-0.914-3.368-1.564-5.593-1.956-6.674c-9.386,9.439-19.426,16.518-30.114,21.235
		c-10.691,4.718-22.097,7.078-34.221,7.078c-21.383,0-38.23-5.997-50.55-17.999c-12.319-11.998-18.479-27.166-18.479-45.504
		c0-12.134,2.802-22.954,8.409-32.459c5.604-9.505,13.459-16.786,23.563-21.842c10.102-5.056,24.67-9.471,43.705-13.247
		c25.681-4.987,43.476-9.638,53.385-13.955v-5.663c0-10.921-2.609-18.707-7.822-23.359c-5.216-4.651-15.057-6.977-29.527-6.977
		c-9.777,0-17.404,1.991-22.88,5.966C300.363,187.83,295.93,194.807,292.541,204.783z M366.067,250.894
		c-7.04,2.427-18.187,5.328-33.438,8.696c-15.253,3.371-25.227,6.674-29.919,9.909c-7.172,5.259-10.756,11.933-10.756,20.022
		c0,7.956,2.866,14.832,8.604,20.628c5.735,5.799,13.034,8.696,21.901,8.696c9.906,0,19.359-3.368,28.354-10.112
		c6.648-5.122,11.015-11.392,13.102-18.808c1.434-4.854,2.151-14.088,2.151-27.707V250.894z"/>
</g>
</svg>
