<?xml version="1.0" encoding="utf-8"?>
<!-- Generator: Adobe Illustrator 16.0.0, SVG Export Plug-In . SVG Version: 6.00 Build 0)  -->
<!DOCTYPE svg PUBLIC "-//W3C//DTD SVG 1.1//EN" "http://www.w3.org/Graphics/SVG/1.1/DTD/svg11.dtd">
<svg version="1.1" id="Layer_1" xmlns="http://www.w3.org/2000/svg" xmlns:xlink="http://www.w3.org/1999/xlink" x="0px" y="0px"
	 width="448px" height="512px" viewBox="0 0 448 512" enable-background="new 0 0 448 512" xml:space="preserve">
<ellipse cx="341.964" cy="76.804" rx="7.373" ry="6.667"/>
<ellipse cx="371.455" cy="76.804" rx="7.373" ry="6.667"/>
<ellipse cx="400.947" cy="76.804" rx="7.373" ry="6.667"/>
<path d="M439.039,25.5H8.96C4.013,25.5,0,30.211,0,36.023v73.658v21.047v347.25c0,5.81,4.013,10.522,8.96,10.522h430.079
	c4.949,0,8.961-4.713,8.961-10.522v-347.25v-21.047V36.023C448,30.211,443.989,25.5,439.039,25.5z M430.081,467.454H17.921V130.728
	h412.16V467.454z M17.921,109.681V46.545h412.16v63.136H17.921z"/>
<path d="M327.677,206.667H120.321c-5.725,0-10.367,5.819-10.367,12.994v155.921c0,7.175,4.642,12.993,10.367,12.993h207.356
	c5.725,0,10.369-5.818,10.369-12.993V219.661C338.046,212.486,333.402,206.667,327.677,206.667z M317.309,232.653v25.987h-186.62
	v-25.987H317.309z M130.689,362.587v-77.958h186.62v77.958H130.689z"/>
</svg>
