<?xml version="1.0" encoding="utf-8"?>
<!-- Generator: Adobe Illustrator 16.0.0, SVG Export Plug-In . SVG Version: 6.00 Build 0)  -->
<!DOCTYPE svg PUBLIC "-//W3C//DTD SVG 1.1//EN" "http://www.w3.org/Graphics/SVG/1.1/DTD/svg11.dtd">
<svg version="1.1" id="Layer_1" xmlns="http://www.w3.org/2000/svg" xmlns:xlink="http://www.w3.org/1999/xlink" x="0px" y="0px"
	 width="448px" height="512px" viewBox="0 0 448 512" enable-background="new 0 0 448 512" xml:space="preserve">
<ellipse cx="341.964" cy="76.804" rx="7.373" ry="6.667"/>
<ellipse cx="371.455" cy="76.804" rx="7.373" ry="6.667"/>
<ellipse cx="400.947" cy="76.804" rx="7.373" ry="6.667"/>
<path d="M439.039,25.5H8.96C4.013,25.5,0,30.211,0,36.023v73.658v21.047v347.25c0,5.81,4.013,10.522,8.96,10.522h430.079
	c4.949,0,8.961-4.713,8.961-10.522v-347.25v-21.047V36.023C448,30.211,443.989,25.5,439.039,25.5z M430.081,467.454H17.921V130.728
	h412.16V467.454z M17.921,109.681V46.545h412.16v63.136H17.921z"/>
<path d="M187.474,130.667H26.978c-4.431,0-8.024,10.773-8.024,24.058v288.674c0,13.283,3.593,24.056,8.024,24.056h160.496
	c4.431,0,8.026-10.772,8.026-24.056V154.725C195.5,141.44,191.906,130.667,187.474,130.667z M179.449,178.778v48.113H35.003v-48.113
	H179.449z M35.003,419.339V275.007h144.446v144.332H35.003z"/>
</svg>
