<?xml version="1.0" encoding="utf-8"?>
<svg xmlns="http://www.w3.org/2000/svg">
<symbol id="box" viewBox="0 0 448 512">
<path fill="none" stroke="currentColor" stroke-width="21" stroke-miterlimit="10" d="M434.5,493.277c0,6.75-5.373,12.223-12,12.223h-396
	c-6.627,0-12-5.473-12-12.223V24.723c0-6.75,5.373-12.223,12-12.223h396c6.627,0,12,5.473,12,12.223V493.277z"/>

</symbol>
<symbol id="button" viewBox="0 0 448 512">
<rect x="11.5" y="89.5" fill="none" stroke="currentColor" stroke-width="20" stroke-miterlimit="10" width="430" height="330"/>
<g enable-background="new    ">
	<path d="M112.527,245.223c4.523,1.055,7.699,2.332,9.527,3.832c2.625,2.133,3.938,4.898,3.938,8.296
		c0,3.586-1.441,6.551-4.324,8.896c-3.539,2.836-8.685,4.254-15.435,4.254H82.011V269.2c2.203,0,3.697-0.205,4.482-0.615
		c0.784-0.41,1.336-0.942,1.651-1.601c0.316-0.656,0.476-2.272,0.476-4.852v-30.938c0-2.578-0.158-4.201-0.476-4.869
		c-0.316-0.668-0.874-1.201-1.67-1.6c-0.797-0.398-2.285-0.598-4.465-0.598v-1.301h22.852c5.462,0,9.328,0.486,11.603,1.459
		c2.272,0.973,4.065,2.426,5.379,4.359c1.313,1.934,1.969,3.99,1.969,6.17c0,2.297-0.832,4.342-2.496,6.135
		C119.652,242.744,116.722,244.168,112.527,245.223z M99.73,247.016v15.292l-0.035,1.758c0,1.267,0.322,2.222,0.968,2.865
		c0.645,0.646,1.6,0.967,2.864,0.967c1.875,0,3.604-0.416,5.187-1.248s2.795-2.039,3.639-3.62c0.844-1.582,1.267-3.347,1.267-5.291
		c0-2.227-0.517-4.225-1.548-5.994c-1.031-1.77-2.448-3.006-4.254-3.709C106.011,247.332,103.316,246.992,99.73,247.016z
		 M99.73,244.273c3.328,0,5.783-0.375,7.365-1.125s2.795-1.805,3.639-3.164c0.845-1.359,1.267-3.094,1.267-5.203
		c0-2.109-0.417-3.838-1.248-5.187c-0.832-1.348-2.021-2.373-3.568-3.076s-4.031-1.043-7.453-1.02L99.73,244.273L99.73,244.273z"/>
	<path d="M130.211,222.828h24.608v1.301h-1.229c-1.853,0-3.124,0.193-3.814,0.58s-1.184,0.92-1.477,1.6s-0.439,2.379-0.439,5.098
		v23.344c0,4.267,0.322,7.09,0.968,8.474c0.645,1.383,1.705,2.53,3.182,3.444s3.34,1.371,5.59,1.371c2.578,0,4.775-0.58,6.592-1.74
		c1.816-1.159,3.177-2.76,4.078-4.799c0.902-2.039,1.354-5.59,1.354-10.652v-19.441c0-2.133-0.224-3.656-0.668-4.57
		c-0.445-0.914-1.009-1.547-1.688-1.898c-1.055-0.539-2.543-0.809-4.465-0.809v-1.301h16.488v1.301h-0.984
		c-1.336,0-2.449,0.27-3.34,0.809s-1.535,1.348-1.934,2.426c-0.306,0.75-0.457,2.098-0.457,4.043v18.105
		c0,5.602-0.369,9.645-1.107,12.128c-0.738,2.484-2.537,4.771-5.396,6.855c-2.859,2.086-6.762,3.129-11.706,3.129
		c-4.125,0-7.313-0.551-9.563-1.652c-3.071-1.5-5.238-3.422-6.504-5.766s-1.898-5.496-1.898-9.457v-23.344
		c0-2.742-0.152-4.447-0.457-5.115s-0.832-1.201-1.582-1.6c-0.75-0.398-2.133-0.586-4.147-0.563v-1.302H130.211z"/>
	<path d="M225.942,222.828v12.902h-1.266c-0.751-2.977-1.583-5.115-2.497-6.416c-0.914-1.301-2.168-2.338-3.762-3.111
		c-0.892-0.422-2.449-0.633-4.676-0.633h-3.552v36.773c0,2.438,0.136,3.962,0.404,4.57s0.796,1.144,1.582,1.601
		c0.785,0.457,1.857,0.686,3.217,0.686h1.582v1.301h-24.961v-1.301h1.582c1.383,0,2.496-0.246,3.34-0.738
		c0.609-0.328,1.09-0.891,1.441-1.688c0.258-0.563,0.387-2.039,0.387-4.431V225.57h-3.445c-3.211,0-5.543,0.68-6.996,2.039
		c-2.038,1.898-3.327,4.605-3.866,8.121h-1.336v-12.902H225.942z"/>
	<path d="M273.965,222.828v12.902h-1.266c-0.752-2.977-1.582-5.115-2.496-6.416c-0.914-1.301-2.168-2.338-3.763-3.111
		c-0.892-0.422-2.448-0.633-4.676-0.633h-3.551v36.773c0,2.438,0.135,3.962,0.404,4.57c0.269,0.608,0.796,1.144,1.582,1.601
		c0.784,0.457,1.856,0.686,3.217,0.686H265v1.301h-24.961v-1.301h1.582c1.383,0,2.496-0.246,3.34-0.738
		c0.608-0.328,1.09-0.891,1.44-1.688c0.259-0.563,0.388-2.039,0.388-4.431V225.57h-3.445c-3.212,0-5.543,0.68-6.996,2.039
		c-2.039,1.898-3.328,4.605-3.867,8.121h-1.336v-12.902H273.965z"/>
	<path d="M303.073,222.16c7.595-0.281,13.765,1.934,18.511,6.645c4.745,4.711,7.118,10.605,7.118,17.684
		c0,6.047-1.77,11.366-5.309,15.961c-4.688,6.094-11.309,9.141-19.863,9.141c-8.577,0-15.211-2.905-19.897-8.719
		c-3.704-4.595-5.555-10.043-5.555-16.348c0-7.078,2.407-12.979,7.225-17.701C290.12,224.101,296.043,221.879,303.073,222.16z
		 M303.495,224.41c-4.358,0-7.677,2.227-9.948,6.68c-1.853,3.656-2.777,8.906-2.777,15.75c0,8.133,1.429,14.145,4.289,18.035
		c1.991,2.719,4.781,4.078,8.367,4.078c2.414,0,4.43-0.586,6.047-1.758c2.063-1.5,3.668-3.896,4.815-7.189
		c1.148-3.293,1.724-7.588,1.724-12.885c0-6.305-0.586-11.021-1.758-14.15c-1.173-3.129-2.666-5.338-4.482-6.627
		C307.955,225.055,305.864,224.41,303.495,224.41z"/>
	<path d="M349.198,222.828l23.521,29.566v-20.496c0-2.859-0.41-4.793-1.23-5.801c-1.125-1.359-3.012-2.016-5.66-1.969v-1.301h15.75
		v1.301c-2.016,0.258-3.368,0.592-4.061,1.002c-0.692,0.41-1.23,1.078-1.617,2.004c-0.387,0.926-0.58,2.514-0.58,4.764v39.691
		h-1.195l-32.237-39.691v30.305c0,2.742,0.627,4.594,1.881,5.555s2.688,1.441,4.307,1.441h1.125v1.301h-16.91v-1.301
		c2.625-0.023,4.453-0.563,5.484-1.617s1.547-2.848,1.547-5.379v-33.645l-1.02-1.266c-1.008-1.266-1.898-2.098-2.672-2.496
		c-0.774-0.398-1.888-0.621-3.341-0.668v-1.301L349.198,222.828L349.198,222.828z"/>
</g>

</symbol>
<symbol id="carousel" viewBox="0 0 448 512">
<path fill="none" stroke="currentColor" stroke-width="31" stroke-miterlimit="10" d="M350.5,486.525c0,6.612-3.198,11.975-7.143,11.975
	H107.643c-3.944,0-7.143-5.362-7.143-11.975V27.475c0-6.613,3.198-11.975,7.143-11.975h235.715c3.944,0,7.143,5.362,7.143,11.975
	V486.525z"/>
<path fill="none" stroke="currentColor" stroke-width="31" stroke-miterlimit="10" d="M423.15,96.5c5.716,0,10.351,4.35,10.351,9.714
	v320.572c0,5.364-4.635,9.714-10.351,9.714H26.352c-5.716,0-10.352-4.35-10.352-9.714V106.214c0-5.364,4.635-9.714,10.352-9.714
	H423.15z"/>

</symbol>
<symbol id="carousel_box" viewBox="0 0 448 512">
<path fill="none" stroke="currentColor" stroke-width="26" stroke-miterlimit="10" d="M434.5,493.277c0,6.75-5.373,12.223-12,12.223h-396
	c-6.627,0-12-5.473-12-12.223V24.723c0-6.75,5.373-12.223,12-12.223h396c6.627,0,12,5.473,12,12.223V493.277z"/>
<path d="M390.714,376H58.286c-7.062,0-12.786,7.163-12.786,16v32c0,8.837,5.724,16,12.786,16h332.428
	c7.062,0,12.786-7.163,12.786-16v-32C403.5,383.163,397.776,376,390.714,376z M390.714,248H58.286c-7.062,0-12.786,7.164-12.786,16
	v32c0,8.836,5.724,16,12.786,16h332.428c7.062,0,12.786-7.164,12.786-16v-32C403.5,255.164,397.776,248,390.714,248z M390.714,120
	H58.286c-7.062,0-12.786,7.164-12.786,16v32c0,8.836,5.724,16,12.786,16h332.428c7.062,0,12.786-7.164,12.786-16v-32
	C403.5,127.164,397.776,120,390.714,120z"/>

</symbol>
<symbol id="checkbox" viewBox="0 0 448 512"><path d="M400 480H48c-26.51 0-48-21.49-48-48V80c0-26.51 21.49-48 48-48h352c26.51 0 48 21.49 48 48v352c0 26.51-21.49 48-48 48zm-204.686-98.059l184-184c6.248-6.248 6.248-16.379 0-22.627l-22.627-22.627c-6.248-6.248-16.379-6.249-22.628 0L184 302.745l-70.059-70.059c-6.248-6.248-16.379-6.248-22.628 0l-22.627 22.627c-6.248 6.248-6.248 16.379 0 22.627l104 104c6.249 6.25 16.379 6.25 22.628.001z"/>
</symbol>
<symbol id="column" viewBox="0 0 448 512">
<path fill="none" stroke="currentColor" stroke-width="21" stroke-miterlimit="10" d="M222.5,493.277c0,6.75-2.687,12.223-6,12.223h-198
	c-3.313,0-6-5.473-6-12.223V24.723c0-6.75,2.687-12.223,6-12.223h198c3.313,0,6,5.473,6,12.223V493.277z"/>
<g>
	<path fill="none" stroke="currentColor" stroke-width="21" stroke-miterlimit="10" stroke-dasharray="12.037,12.037" d="M437.5,494.797
		c0,6.463-5.105,11.703-11.402,11.703H257.903c-6.297,0-11.402-5.24-11.402-11.703V25.203c0-6.463,5.105-11.703,11.402-11.703
		h168.195c6.297,0,11.402,5.24,11.402,11.703V494.797z"/>
</g>

</symbol>
<symbol id="countdown" viewBox="0 0 512 512"><path d="M256 8C119 8 8 119 8 256s111 248 248 248 248-111 248-248S393 8 256 8zm0 448c-110.5 0-200-89.5-200-200S145.5 56 256 56s200 89.5 200 200-89.5 200-200 200zm61.8-104.4l-84.9-61.7c-3.1-2.3-4.9-5.9-4.9-9.7V116c0-6.6 5.4-12 12-12h32c6.6 0 12 5.4 12 12v141.7l66.8 48.6c5.4 3.9 6.5 11.4 2.6 16.8L334.6 349c-3.9 5.3-11.4 6.5-16.8 2.6z"/>
</symbol>
<symbol id="dropdown" viewBox="0 0 320 512"><path d="M31.3 192h257.3c17.8 0 26.7 21.5 14.1 34.1L174.1 354.8c-7.8 7.8-20.5 7.8-28.3 0L17.2 226.1C4.6 213.5 13.5 192 31.3 192z"/>
</symbol>
<symbol id="email" viewBox="0 0 448 512">
<path fill="none" stroke="currentColor" stroke-width="21" stroke-miterlimit="10" d="M434.5,398.236c0,4.011-5.373,7.264-12,7.264h-396
	c-6.627,0-12-3.253-12-7.264V119.765c0-4.012,5.373-7.265,12-7.265h396c6.627,0,12,3.253,12,7.265V398.236z"/>
<line fill="none" stroke="currentColor" stroke-width="21" stroke-miterlimit="10" x1="84.5" y1="201.5" x2="84.5" y2="292.5"/>
<path d="M418.695,359.908c1.329-1.098,3.306-0.07,3.306,1.665V434c0,9.386-7.328,17-16.359,17H263.86
	c-9.032,0-16.359-7.614-16.359-17v-72.392c0-1.771,1.942-2.763,3.306-1.665c7.635,6.163,17.757,13.99,52.521,40.233
	c7.191,5.454,19.324,16.93,31.424,16.858c12.167,0.106,24.539-11.616,31.458-16.858C400.972,373.934,411.06,366.07,418.695,359.908z
	 M334.75,405.667c7.907,0.142,19.29-10.342,25.016-14.663c45.227-34.105,48.67-37.081,59.099-45.581
	c1.977-1.594,3.136-4.073,3.136-6.693V332c0-9.386-7.328-17-16.359-17H263.86c-9.032,0-16.359,7.614-16.359,17v6.729
	c0,2.62,1.158,5.064,3.136,6.693c10.429,8.465,13.871,11.476,59.099,45.581C315.459,395.325,326.843,405.809,334.75,405.667
	L334.75,405.667z"/>

</symbol>
<symbol id="embed" viewBox="0 0 576 512"><path d="M336.2 64H47.8C21.4 64 0 85.4 0 111.8v288.4C0 426.6 21.4 448 47.8 448h288.4c26.4 0 47.8-21.4 47.8-47.8V111.8c0-26.4-21.4-47.8-47.8-47.8zm189.4 37.7L416 177.3v157.4l109.6 75.5c21.2 14.6 50.4-.3 50.4-25.8V127.5c0-25.4-29.1-40.4-50.4-25.8z"/>
</symbol>
<symbol id="form" viewBox="0 0 448 512">
<path fill="none" stroke="currentColor" stroke-width="21" stroke-miterlimit="10" d="M434.5,493.277c0,6.75-5.373,12.223-12,12.223h-396
	c-6.627,0-12-5.473-12-12.223V24.723c0-6.75,5.373-12.223,12-12.223h396c6.627,0,12,5.473,12,12.223V493.277z"/>
<rect x="166.5" y="92.5" fill="none" stroke="currentColor" stroke-width="21" stroke-miterlimit="10" width="221" height="45"/>
<line fill="none" stroke="currentColor" stroke-width="21" stroke-miterlimit="10" x1="49.5" y1="115" x2="125.5" y2="115"/>
<rect x="166.5" y="239.5" fill="none" stroke="currentColor" stroke-width="21" stroke-miterlimit="10" width="221" height="45"/>
<line fill="none" stroke="currentColor" stroke-width="21" stroke-miterlimit="10" x1="49.5" y1="256" x2="125.5" y2="256"/>
<rect x="166.5" y="352.5" fill="none" stroke="currentColor" stroke-width="21" stroke-miterlimit="10" width="67" height="45"/>
<line fill="none" stroke="currentColor" stroke-width="21" stroke-miterlimit="10" x1="271.5" y1="370.5" x2="387.5" y2="370.5"/>

</symbol>
<symbol id="form_group" viewBox="0 0 448 512">
<path fill="none" stroke="currentColor" stroke-width="21" stroke-miterlimit="10" d="M434.5,493.277c0,6.75-5.373,12.223-12,12.223h-396
	c-6.627,0-12-5.473-12-12.223V24.723c0-6.75,5.373-12.223,12-12.223h396c6.627,0,12,5.473,12,12.223V493.277z"/>

</symbol>
<symbol id="heading" viewBox="0 0 448 512">
<g>
	<path d="M136.567,243.724h174.082V120.638c0-21.993-1.198-36.482-3.593-43.461c-1.842-5.284-5.711-9.834-11.605-13.641
		c-7.921-5.076-16.303-7.614-25.145-7.614h-13.263V44.185H417.31v11.737h-13.264c-8.843,0-17.228,2.434-25.146,7.296
		c-5.897,3.385-9.905,8.516-12.02,15.386c-2.122,6.875-3.178,20.888-3.178,42.033v277.578c0,21.785,1.194,36.164,3.591,43.145
		c1.839,5.288,5.616,9.833,11.33,13.641c8.104,5.075,16.579,7.612,25.422,7.612h13.264v11.738H257.043v-11.738h13.263
		c15.289,0,26.431-5.18,33.435-15.544c4.603-6.766,6.908-23.049,6.908-48.854V267.198H136.567v131.018
		c0,21.785,1.196,36.164,3.592,43.145c1.839,5.288,5.708,9.833,11.605,13.641c7.918,5.075,16.303,7.612,25.145,7.612h13.541v11.738
		H29.906v-11.738h13.263c15.474,0,26.709-5.18,33.712-15.544c4.421-6.766,6.632-23.049,6.632-48.854V120.638
		c0-21.993-1.2-36.482-3.593-43.461c-1.843-5.284-5.621-9.834-11.329-13.641c-8.108-5.076-16.579-7.614-25.422-7.614H29.906V44.185
		h160.543v11.737h-13.541c-8.841,0-17.227,2.434-25.145,7.296c-5.712,3.385-9.671,8.516-11.882,15.386
		c-2.21,6.875-3.315,20.888-3.315,42.033V243.724z"/>
</g>

</symbol>
<symbol id="hidden" viewBox="0 0 448 512">
<g>
	<path fill="none" stroke="currentColor" stroke-width="21" stroke-miterlimit="10" stroke-dasharray="11.9521,11.9521" d="
		M434.5,398.236c0,4.011-5.373,7.264-12,7.264h-396c-6.627,0-12-3.253-12-7.264V119.765c0-4.012,5.373-7.265,12-7.265h396
		c6.627,0,12,3.253,12,7.265V398.236z"/>
</g>
<line fill="none" stroke="currentColor" stroke-width="21" stroke-miterlimit="10" x1="84.5" y1="201.5" x2="84.5" y2="292.5"/>

</symbol>
<symbol id="html" viewBox="0 0 640 512"><path d="M278.9 511.5l-61-17.7c-6.4-1.8-10-8.5-8.2-14.9L346.2 8.7c1.8-6.4 8.5-10 14.9-8.2l61 17.7c6.4 1.8 10 8.5 8.2 14.9L293.8 503.3c-1.9 6.4-8.5 10.1-14.9 8.2zm-114-112.2l43.5-46.4c4.6-4.9 4.3-12.7-.8-17.2L117 256l90.6-79.7c5.1-4.5 5.5-12.3.8-17.2l-43.5-46.4c-4.5-4.8-12.1-5.1-17-.5L3.8 247.2c-5.1 4.7-5.1 12.8 0 17.5l144.1 135.1c4.9 4.6 12.5 4.4 17-.5zm327.2.6l144.1-135.1c5.1-4.7 5.1-12.8 0-17.5L492.1 112.1c-4.8-4.5-12.4-4.3-17 .5L431.6 159c-4.6 4.9-4.3 12.7.8 17.2L523 256l-90.6 79.7c-5.1 4.5-5.5 12.3-.8 17.2l43.5 46.4c4.5 4.9 12.1 5.1 17 .6z"/>
</symbol>
<symbol id="iframe" viewBox="0 0 448 512">
<path d="M202.046,434.85l-35.553-12.39c-3.729-1.26-5.828-5.95-4.778-10.431L241.27,82.89c1.05-4.48,4.954-7,8.685-5.74
	l35.552,12.39c3.729,1.26,5.828,5.95,4.779,10.43L210.731,429.11C209.623,433.59,205.777,436.18,202.046,434.85z M135.604,356.311
	l25.353-32.48c2.681-3.43,2.506-8.891-0.467-12.04L107.687,256l52.804-55.79c2.973-3.15,3.206-8.61,0.467-12.04l-25.353-32.48
	c-2.623-3.36-7.052-3.57-9.908-0.35l-83.984,94.5c-2.973,3.29-2.973,8.96,0,12.25l83.984,94.57
	C128.552,359.88,132.981,359.74,135.604,356.311L135.604,356.311z M326.303,356.73l83.985-94.57c2.972-3.29,2.972-8.96,0-12.25
	l-83.985-94.64c-2.798-3.15-7.227-3.01-9.908,0.35l-25.353,32.48c-2.681,3.43-2.506,8.89,0.467,12.04L344.313,256l-52.804,55.79
	c-2.973,3.149-3.206,8.61-0.467,12.04l25.353,32.48C319.018,359.74,323.448,359.88,326.303,356.73L326.303,356.73z"/>
<path fill="none" stroke="currentColor" stroke-width="21" stroke-miterlimit="10" d="M433.5,490.277c0,6.75-5.373,12.223-12,12.223h-396
	c-6.627,0-12-5.473-12-12.223V21.723c0-6.75,5.373-12.223,12-12.223h396c6.627,0,12,5.473,12,12.223V490.277z"/>

</symbol>
<symbol id="image" viewBox="0 0 512 512"><path d="M464 448H48c-26.51 0-48-21.49-48-48V112c0-26.51 21.49-48 48-48h416c26.51 0 48 21.49 48 48v288c0 26.51-21.49 48-48 48zM112 120c-30.928 0-56 25.072-56 56s25.072 56 56 56 56-25.072 56-56-25.072-56-56-56zM64 384h384V272l-87.515-87.515c-4.686-4.686-12.284-4.686-16.971 0L208 320l-55.515-55.515c-4.686-4.686-12.284-4.686-16.971 0L64 336v48z"/>
</symbol>
<symbol id="input" viewBox="0 0 448 512">
<path fill="none" stroke="currentColor" stroke-width="21" stroke-miterlimit="10" d="M434.5,398.236c0,4.011-5.373,7.264-12,7.264h-396
	c-6.627,0-12-3.253-12-7.264V119.765c0-4.012,5.373-7.265,12-7.265h396c6.627,0,12,3.253,12,7.265V398.236z"/>
<line fill="none" stroke="currentColor" stroke-width="21" stroke-miterlimit="10" x1="84.5" y1="201.5" x2="84.5" y2="292.5"/>

</symbol>
<symbol id="label" viewBox="0 0 448 512">
<path d="M115.445,81.778h224c6.873,0,12.444,5.571,12.444,12.444v74.667c0,6.874-5.571,12.445-12.444,12.445h-27.608
	c-6.873,0-12.444-5.571-12.444-12.445v-37.333H256.8v248.889h26.645c6.873,0,12.444,5.571,12.444,12.444v24.889
	c0,6.874-5.571,12.445-12.444,12.445h-112c-6.873,0-12.444-5.571-12.444-12.445v-24.889c0-6.873,5.571-12.444,12.444-12.444h26.645
	V131.556h-42.592v37.333c0,6.874-5.571,12.445-12.445,12.445h-27.607c-6.873,0-12.444-5.571-12.444-12.445V94.222
	C103,87.349,108.572,81.778,115.445,81.778z"/>

</symbol>
<symbol id="line" viewBox="0 0 448 512">
<line fill="none" stroke="currentColor" stroke-width="21" stroke-miterlimit="10" x1="0" y1="252" x2="448" y2="252"/>

</symbol>
<symbol id="link_block" viewBox="0 0 448 512">
<rect x="26" y="56" fill="none" stroke="currentColor" stroke-width="20" stroke-miterlimit="10" width="400" height="400"/>
<path d="M252.721,220.867c23.455,18.335,23.133,47.734,0.142,65.79c-0.044,0.036-0.095,0.075-0.142,0.112l-26.381,20.604
	c-23.27,18.172-61.125,18.169-84.389,0c-23.27-18.168-23.27-47.734,0-65.904l14.566-11.376c3.862-3.017,10.517-1.012,10.715,3.251
	c0.254,5.434,1.501,10.892,3.805,16.165c0.779,1.784,0.222,3.758-1.485,5.092l-5.138,4.012c-11.003,8.593-11.349,22.584-0.454,31.26
	c11.001,8.764,29.084,8.814,40.171,0.156l26.381-20.6c11.067-8.644,11.021-22.614,0-31.221c-1.453-1.132-2.916-2.012-4.06-2.627
	c-1.641-0.879-2.651-2.313-2.729-3.865c-0.156-3.24,1.314-6.579,4.593-9.138l8.267-6.455c2.167-1.692,5.566-1.901,8.08-0.53
	C247.542,217.164,250.238,218.928,252.721,220.867L252.721,220.867z M308.049,177.656c-23.266-18.169-61.121-18.171-84.389,0
	l-26.383,20.603c-0.047,0.037-0.098,0.077-0.141,0.113c-22.992,18.056-23.314,47.455,0.141,65.792
	c2.483,1.938,5.179,3.702,8.058,5.271c2.513,1.369,5.914,1.16,8.081-0.531l8.266-6.455c3.277-2.561,4.748-5.898,4.591-9.138
	c-0.073-1.553-1.086-2.985-2.727-3.864c-1.144-0.615-2.606-1.494-4.061-2.627c-11.021-8.607-11.066-22.577,0-31.22l26.383-20.6
	c11.086-8.658,29.168-8.605,40.17,0.156c10.894,8.676,10.549,22.667-0.453,31.259l-5.139,4.013
	c-1.708,1.333-2.265,3.308-1.484,5.092c2.302,5.272,3.55,10.731,3.805,16.165c0.199,4.263,6.854,6.268,10.715,3.252l14.567-11.376
	C331.317,225.391,331.317,195.824,308.049,177.656L308.049,177.656z"/>

</symbol>
<symbol id="link_button" viewBox="0 0 448 512">
<rect x="11.5" y="89.5" fill="none" stroke="currentColor" stroke-width="20" stroke-miterlimit="10" width="430" height="330"/>
<g enable-background="new    ">
	<path d="M112.527,245.223c4.523,1.055,7.699,2.332,9.527,3.832c2.625,2.133,3.938,4.898,3.938,8.296
		c0,3.586-1.441,6.551-4.324,8.896c-3.539,2.836-8.685,4.254-15.435,4.254H82.011V269.2c2.203,0,3.697-0.205,4.482-0.615
		c0.784-0.41,1.336-0.942,1.651-1.601c0.316-0.656,0.476-2.272,0.476-4.852v-30.938c0-2.578-0.158-4.201-0.476-4.869
		c-0.316-0.668-0.874-1.201-1.67-1.6c-0.797-0.398-2.285-0.598-4.465-0.598v-1.301h22.852c5.462,0,9.328,0.486,11.603,1.459
		c2.272,0.973,4.065,2.426,5.379,4.359c1.313,1.934,1.969,3.99,1.969,6.17c0,2.297-0.832,4.342-2.496,6.135
		C119.652,242.744,116.722,244.168,112.527,245.223z M99.73,247.016v15.292l-0.035,1.758c0,1.267,0.322,2.222,0.968,2.865
		c0.645,0.646,1.6,0.967,2.864,0.967c1.875,0,3.604-0.416,5.187-1.248s2.795-2.039,3.639-3.62c0.844-1.582,1.267-3.347,1.267-5.291
		c0-2.227-0.517-4.225-1.548-5.994c-1.031-1.77-2.448-3.006-4.254-3.709C106.011,247.332,103.316,246.992,99.73,247.016z
		 M99.73,244.273c3.328,0,5.783-0.375,7.365-1.125s2.795-1.805,3.639-3.164c0.845-1.359,1.267-3.094,1.267-5.203
		c0-2.109-0.417-3.838-1.248-5.187c-0.832-1.348-2.021-2.373-3.568-3.076s-4.031-1.043-7.453-1.02L99.73,244.273L99.73,244.273z"/>
	<path d="M130.211,222.828h24.608v1.301h-1.229c-1.853,0-3.124,0.193-3.814,0.58s-1.184,0.92-1.477,1.6s-0.439,2.379-0.439,5.098
		v23.344c0,4.267,0.322,7.09,0.968,8.474c0.645,1.383,1.705,2.53,3.182,3.444s3.34,1.371,5.59,1.371c2.578,0,4.775-0.58,6.592-1.74
		c1.816-1.159,3.177-2.76,4.078-4.799c0.902-2.039,1.354-5.59,1.354-10.652v-19.441c0-2.133-0.224-3.656-0.668-4.57
		c-0.445-0.914-1.009-1.547-1.688-1.898c-1.055-0.539-2.543-0.809-4.465-0.809v-1.301h16.488v1.301h-0.984
		c-1.336,0-2.449,0.27-3.34,0.809s-1.535,1.348-1.934,2.426c-0.306,0.75-0.457,2.098-0.457,4.043v18.105
		c0,5.602-0.369,9.645-1.107,12.128c-0.738,2.484-2.537,4.771-5.396,6.855c-2.859,2.086-6.762,3.129-11.706,3.129
		c-4.125,0-7.313-0.551-9.563-1.652c-3.071-1.5-5.238-3.422-6.504-5.766s-1.898-5.496-1.898-9.457v-23.344
		c0-2.742-0.152-4.447-0.457-5.115s-0.832-1.201-1.582-1.6c-0.75-0.398-2.133-0.586-4.147-0.563v-1.302H130.211z"/>
	<path d="M225.942,222.828v12.902h-1.266c-0.751-2.977-1.583-5.115-2.497-6.416c-0.914-1.301-2.168-2.338-3.762-3.111
		c-0.892-0.422-2.449-0.633-4.676-0.633h-3.552v36.773c0,2.438,0.136,3.962,0.404,4.57s0.796,1.144,1.582,1.601
		c0.785,0.457,1.857,0.686,3.217,0.686h1.582v1.301h-24.961v-1.301h1.582c1.383,0,2.496-0.246,3.34-0.738
		c0.609-0.328,1.09-0.891,1.441-1.688c0.258-0.563,0.387-2.039,0.387-4.431V225.57h-3.445c-3.211,0-5.543,0.68-6.996,2.039
		c-2.038,1.898-3.327,4.605-3.866,8.121h-1.336v-12.902H225.942z"/>
	<path d="M273.965,222.828v12.902h-1.266c-0.752-2.977-1.582-5.115-2.496-6.416c-0.914-1.301-2.168-2.338-3.763-3.111
		c-0.892-0.422-2.448-0.633-4.676-0.633h-3.551v36.773c0,2.438,0.135,3.962,0.404,4.57c0.269,0.608,0.796,1.144,1.582,1.601
		c0.784,0.457,1.856,0.686,3.217,0.686H265v1.301h-24.961v-1.301h1.582c1.383,0,2.496-0.246,3.34-0.738
		c0.608-0.328,1.09-0.891,1.44-1.688c0.259-0.563,0.388-2.039,0.388-4.431V225.57h-3.445c-3.212,0-5.543,0.68-6.996,2.039
		c-2.039,1.898-3.328,4.605-3.867,8.121h-1.336v-12.902H273.965z"/>
	<path d="M303.073,222.16c7.595-0.281,13.765,1.934,18.511,6.645c4.745,4.711,7.118,10.605,7.118,17.684
		c0,6.047-1.77,11.366-5.309,15.961c-4.688,6.094-11.309,9.141-19.863,9.141c-8.577,0-15.211-2.905-19.897-8.719
		c-3.704-4.595-5.555-10.043-5.555-16.348c0-7.078,2.407-12.979,7.225-17.701C290.12,224.101,296.043,221.879,303.073,222.16z
		 M303.495,224.41c-4.358,0-7.677,2.227-9.948,6.68c-1.853,3.656-2.777,8.906-2.777,15.75c0,8.133,1.429,14.145,4.289,18.035
		c1.991,2.719,4.781,4.078,8.367,4.078c2.414,0,4.43-0.586,6.047-1.758c2.063-1.5,3.668-3.896,4.815-7.189
		c1.148-3.293,1.724-7.588,1.724-12.885c0-6.305-0.586-11.021-1.758-14.15c-1.173-3.129-2.666-5.338-4.482-6.627
		C307.955,225.055,305.864,224.41,303.495,224.41z"/>
	<path d="M349.198,222.828l23.521,29.566v-20.496c0-2.859-0.41-4.793-1.23-5.801c-1.125-1.359-3.012-2.016-5.66-1.969v-1.301h15.75
		v1.301c-2.016,0.258-3.368,0.592-4.061,1.002c-0.692,0.41-1.23,1.078-1.617,2.004c-0.387,0.926-0.58,2.514-0.58,4.764v39.691
		h-1.195l-32.237-39.691v30.305c0,2.742,0.627,4.594,1.881,5.555s2.688,1.441,4.307,1.441h1.125v1.301h-16.91v-1.301
		c2.625-0.023,4.453-0.563,5.484-1.617s1.547-2.848,1.547-5.379v-33.645l-1.02-1.266c-1.008-1.266-1.898-2.098-2.672-2.496
		c-0.774-0.398-1.888-0.621-3.341-0.668v-1.301L349.198,222.828L349.198,222.828z"/>
</g>

</symbol>
<symbol id="link_icon" viewBox="0 0 448 512">
<rect x="11.5" y="39.5" fill="none" stroke="currentColor" stroke-width="20" stroke-miterlimit="10" width="430" height="430"/>
<g>
	<path d="M146.638,178.464l0.784,39.908H144.5c-1.38-10.006-4.767-18.056-10.161-24.148c-5.396-6.092-11.23-9.138-17.505-9.138
		c-4.848,0-8.688,1.604-11.516,4.812c-2.828,3.209-4.243,6.901-4.243,11.081c0,2.649,0.5,5.003,1.498,7.063
		c1.378,2.768,3.588,5.505,6.631,8.211c2.234,1.942,7.391,5.386,15.473,10.33c11.312,6.887,18.941,13.392,22.888,19.513
		c3.897,6.123,5.847,13.126,5.847,21.014c0,10.008-3.149,18.614-9.448,25.826c-6.299,7.211-14.296,10.815-23.994,10.815
		c-3.042,0-5.917-0.383-8.627-1.147c-2.709-0.766-6.108-2.208-10.196-4.326c-2.282-1.178-4.16-1.767-5.633-1.767
		c-1.236,0-2.542,0.589-3.922,1.767c-1.379,1.176-2.495,2.972-3.351,5.385h-2.639v-45.206h2.639
		c2.091,12.715,6.12,22.413,12.085,29.093c5.965,6.682,12.396,10.021,19.288,10.021c5.323,0,9.565-1.795,12.728-5.386
		c3.161-3.591,4.741-7.77,4.741-12.538c0-2.825-0.606-5.562-1.819-8.211c-1.211-2.648-3.054-5.165-5.525-7.549
		c-2.472-2.385-6.845-5.487-13.12-9.315c-8.795-5.355-15.116-9.919-18.967-13.686c-3.85-3.766-6.81-7.976-8.877-12.626
		c-2.068-4.648-3.102-9.77-3.102-15.363c0-9.536,2.828-17.659,8.485-24.369c5.658-6.71,12.787-10.065,21.391-10.065
		c3.138,0,6.18,0.472,9.128,1.412c2.233,0.707,4.955,2.017,8.164,3.929c3.209,1.913,5.455,2.869,6.738,2.869
		c1.237,0,2.211-0.47,2.924-1.413c0.713-0.94,1.378-3.208,1.997-6.798H146.638z"/>
	<path d="M263.219,181.201v3.267c-3.518,0.707-6.655,3.033-9.412,6.975c-1.995,2.944-4.968,9.86-8.912,20.749l-33.299,91.472h-2.353
		l-33.156-95.18c-3.993-11.479-6.666-18.218-8.021-20.219c-1.354-2-3.911-3.267-7.665-3.797v-3.267h46.347v3.267h-1.568
		c-4.183,0-7.036,0.648-8.557,1.942c-1.093,0.883-1.64,2.178-1.64,3.885c0,1.06,0.19,2.311,0.57,3.752
		c0.38,1.443,1.664,5.313,3.851,11.611l20.606,59.598l19.109-53.064c2.282-6.415,3.684-10.712,4.208-12.891
		c0.522-2.176,0.784-4.03,0.784-5.563c0-1.766-0.381-3.324-1.142-4.679c-0.761-1.354-1.878-2.384-3.351-3.09
		c-2.044-1.001-4.755-1.501-8.129-1.501v-3.267H263.219z"/>
	<path d="M365.469,178.464v42.204h-2.64c-3.185-11.536-7.962-20.307-14.333-26.311c-6.368-6.004-13.333-9.006-20.89-9.006
		c-7.227,0-13.24,2.516-18.04,7.549c-4.802,5.033-8.2,12.052-10.197,21.058c-1.996,9.006-2.994,18.248-2.994,27.724
		c0,11.479,1.093,21.544,3.279,30.197c2.188,8.653,5.718,15.01,10.589,19.071c4.873,4.063,10.66,6.092,17.363,6.092
		c2.328,0,4.717-0.309,7.165-0.927s4.956-1.516,7.522-2.692v-24.898c0-4.709-0.262-7.756-0.783-9.139
		c-0.523-1.383-1.605-2.635-3.246-3.753c-1.64-1.117-3.623-1.678-5.952-1.678h-2.497v-3.267h46.989v3.267
		c-3.564,0.296-6.048,0.897-7.451,1.81c-1.403,0.914-2.483,2.429-3.244,4.547c-0.428,1.118-0.641,3.855-0.641,8.212v24.898
		c-6.181,3.414-12.609,5.989-19.288,7.726s-13.606,2.604-20.785,2.604c-9.175,0-16.792-1.545-22.854-4.636
		c-6.06-3.089-11.407-7.151-16.042-12.185c-4.636-5.032-8.26-10.696-10.875-16.996c-3.327-8.123-4.99-17.217-4.99-27.283
		c0-18.012,5.11-33.228,15.33-45.647c10.22-12.418,23.078-18.63,38.574-18.63c4.802,0,9.128,0.473,12.978,1.413
		c2.092,0.472,5.479,1.81,10.161,4.018c4.681,2.208,7.451,3.311,8.306,3.311c1.332,0,2.568-0.604,3.709-1.81
		c1.14-1.205,2.187-3.488,3.137-6.842H365.469z"/>
</g>

</symbol>
<symbol id="link_image" viewBox="0 0 512 512"><path d="M464 448H48c-26.51 0-48-21.49-48-48V112c0-26.51 21.49-48 48-48h416c26.51 0 48 21.49 48 48v288c0 26.51-21.49 48-48 48zM112 120c-30.928 0-56 25.072-56 56s25.072 56 56 56 56-25.072 56-56-25.072-56-56-56zM64 384h384V272l-87.515-87.515c-4.686-4.686-12.284-4.686-16.971 0L208 320l-55.515-55.515c-4.686-4.686-12.284-4.686-16.971 0L64 336v48z"/>
</symbol>
<symbol id="link_text" viewBox="0 0 448 512">
<path d="M115.445,81.778h224c6.873,0,12.444,5.571,12.444,12.444v74.667c0,6.874-5.571,12.445-12.444,12.445h-27.608
	c-6.873,0-12.444-5.571-12.444-12.445v-37.333H256.8v248.889h26.645c6.873,0,12.444,5.571,12.444,12.444v24.889
	c0,6.874-5.571,12.445-12.444,12.445h-112c-6.873,0-12.444-5.571-12.444-12.445v-24.889c0-6.873,5.571-12.444,12.444-12.444h26.645
	V131.556h-42.592v37.333c0,6.874-5.571,12.445-12.445,12.445h-27.607c-6.873,0-12.444-5.571-12.444-12.445V94.222
	C103,87.349,108.572,81.778,115.445,81.778z"/>

</symbol>
<symbol id="multi_dropdown" viewBox="0 0 448 512">
<path fill="none" stroke="currentColor" stroke-width="21" stroke-miterlimit="10" d="M434.5,493.277c0,6.75-5.373,12.223-12,12.223h-396
	c-6.627,0-12-5.473-12-12.223V24.723c0-6.75,5.373-12.223,12-12.223h396c6.627,0,12,5.473,12,12.223V493.277z"/>
<line fill="none" stroke="currentColor" stroke-width="21" stroke-miterlimit="10" x1="186.5" y1="115" x2="375.5" y2="115"/>
<rect x="66.5" y="92.5" fill="none" stroke="currentColor" stroke-width="21" stroke-miterlimit="10" width="67" height="45"/>
<line fill="none" stroke="currentColor" stroke-width="21" stroke-miterlimit="10" x1="188.5" y1="253.5" x2="377.5" y2="253.5"/>
<rect x="64.5" y="231" fill="none" stroke="currentColor" stroke-width="21" stroke-miterlimit="10" width="67" height="45"/>
<line fill="none" stroke="currentColor" stroke-width="21" stroke-miterlimit="10" x1="185.5" y1="392" x2="374.5" y2="392"/>
<rect x="65.5" y="369.5" fill="none" stroke="currentColor" stroke-width="21" stroke-miterlimit="10" width="67" height="45"/>

</symbol>
<symbol id="number" viewBox="0 0 448 512">
<path fill="none" stroke="currentColor" stroke-width="21" stroke-miterlimit="10" d="M434.5,398.236c0,4.011-5.373,7.264-12,7.264h-396
	c-6.627,0-12-3.253-12-7.264V119.765c0-4.012,5.373-7.265,12-7.265h396c6.627,0,12,3.253,12,7.265V398.236z"/>
<line fill="none" stroke="currentColor" stroke-width="21" stroke-miterlimit="10" x1="84.5" y1="201.5" x2="84.5" y2="292.5"/>

</symbol>
<symbol id="password" viewBox="0 0 448 512">
<path fill="none" stroke="currentColor" stroke-width="21" stroke-miterlimit="10" d="M434.5,398.236c0,4.011-5.373,7.264-12,7.264h-396
	c-6.627,0-12-3.253-12-7.264V119.765c0-4.012,5.373-7.265,12-7.265h396c6.627,0,12,3.253,12,7.265V398.236z"/>
<g>
	<path d="M81.989,246.82c-0.225-3.863-1.008-7.698-2.352-11.506c-1.904-5.486-2.855-9.266-2.855-11.338
		c0-2.911,0.685-5.123,2.058-6.635c1.371-1.512,3.065-2.268,5.081-2.268c1.735,0,3.247,0.756,4.535,2.268
		c1.287,1.512,1.932,3.668,1.932,6.467c0,2.52-0.743,6.034-2.226,10.54c-1.484,4.508-2.394,8.665-2.729,12.472
		c3.079-1.959,5.85-4.338,8.314-7.139c3.807-4.422,6.635-7.166,8.482-8.23c1.848-1.063,3.723-1.596,5.627-1.596
		c1.848,0,3.401,0.63,4.661,1.89s1.89,2.758,1.89,4.493c0,2.072-0.924,3.92-2.771,5.543c-1.848,1.625-6.467,3.248-13.857,4.871
		c-4.312,0.953-7.895,2.044-10.75,3.275c2.911,1.512,6.467,2.66,10.666,3.443c6.774,1.232,11.212,2.771,13.312,4.619
		s3.149,3.863,3.149,6.047c0,1.68-0.63,3.137-1.89,4.367c-1.26,1.232-2.729,1.848-4.409,1.848s-3.542-0.588-5.585-1.764
		c-2.044-1.176-4.802-3.807-8.272-7.895c-2.296-2.742-5.152-5.318-8.566-7.727c0.111,3.191,0.756,6.664,1.932,10.414
		c2.016,6.607,3.023,11.115,3.023,13.521c0,2.24-0.672,4.13-2.016,5.669c-1.344,1.54-2.771,2.31-4.283,2.31
		c-2.072,0-3.947-0.811-5.627-2.436c-1.176-1.176-1.764-3.051-1.764-5.627c0-2.688,0.643-5.921,1.932-9.7
		c1.287-3.779,2.1-6.383,2.436-7.811s0.643-3.541,0.924-6.341c-3.304,2.184-6.188,4.619-8.65,7.307
		c-4.088,4.592-7.167,7.504-9.238,8.734c-1.457,0.896-2.968,1.344-4.535,1.344c-1.904,0-3.527-0.643-4.871-1.932
		c-1.344-1.287-2.016-2.715-2.016-4.283c0-1.398,0.573-2.869,1.722-4.409c1.147-1.539,2.869-2.813,5.165-3.821
		c1.512-0.672,4.955-1.567,10.33-2.688c3.471-0.727,6.858-1.791,10.162-3.191c-3.023-1.512-6.635-2.688-10.834-3.527
		c-6.887-1.455-11.143-2.771-12.766-3.947c-2.52-1.848-3.779-4.086-3.779-6.719c0-1.512,0.63-2.897,1.89-4.157
		s2.729-1.89,4.409-1.89c1.848,0,3.807,0.588,5.879,1.764c2.071,1.176,4.646,3.542,7.727,7.097
		C75.661,242.104,78.797,244.861,81.989,246.82z"/>
	<path d="M167.989,246.82c-0.225-3.863-1.008-7.698-2.352-11.506c-1.904-5.486-2.855-9.266-2.855-11.338
		c0-2.911,0.685-5.123,2.058-6.635c1.371-1.512,3.065-2.268,5.081-2.268c1.734,0,3.246,0.756,4.535,2.268
		c1.287,1.512,1.932,3.668,1.932,6.467c0,2.52-0.743,6.034-2.226,10.54c-1.484,4.508-2.394,8.665-2.729,12.472
		c3.078-1.959,5.85-4.338,8.314-7.139c3.807-4.422,6.635-7.166,8.482-8.23c1.848-1.063,3.723-1.596,5.627-1.596
		c1.848,0,3.401,0.63,4.661,1.89s1.89,2.758,1.89,4.493c0,2.072-0.924,3.92-2.771,5.543c-1.848,1.625-6.467,3.248-13.857,4.871
		c-4.313,0.953-7.895,2.044-10.75,3.275c2.91,1.512,6.467,2.66,10.666,3.443c6.773,1.232,11.212,2.771,13.312,4.619
		s3.149,3.863,3.149,6.047c0,1.68-0.63,3.137-1.89,4.367c-1.26,1.232-2.729,1.848-4.409,1.848s-3.542-0.588-5.585-1.764
		c-2.045-1.176-4.802-3.807-8.272-7.895c-2.297-2.742-5.152-5.318-8.566-7.727c0.111,3.191,0.756,6.664,1.932,10.414
		c2.016,6.607,3.023,11.115,3.023,13.521c0,2.24-0.672,4.13-2.016,5.669c-1.344,1.54-2.771,2.31-4.283,2.31
		c-2.072,0-3.947-0.811-5.627-2.436c-1.176-1.176-1.764-3.051-1.764-5.627c0-2.688,0.643-5.921,1.932-9.7
		c1.287-3.779,2.1-6.383,2.436-7.811s0.643-3.541,0.924-6.341c-3.304,2.184-6.188,4.619-8.65,7.307
		c-4.088,4.592-7.167,7.504-9.238,8.734c-1.457,0.896-2.968,1.344-4.535,1.344c-1.904,0-3.527-0.643-4.871-1.932
		c-1.344-1.287-2.016-2.715-2.016-4.283c0-1.398,0.573-2.869,1.722-4.409c1.147-1.539,2.869-2.813,5.165-3.821
		c1.512-0.672,4.955-1.567,10.33-2.688c3.471-0.727,6.858-1.791,10.162-3.191c-3.023-1.512-6.635-2.688-10.834-3.527
		c-6.887-1.455-11.143-2.771-12.766-3.947c-2.52-1.848-3.779-4.086-3.779-6.719c0-1.512,0.63-2.897,1.89-4.157
		s2.729-1.89,4.409-1.89c1.848,0,3.807,0.588,5.879,1.764c2.071,1.176,4.646,3.542,7.727,7.097
		C161.661,242.104,164.797,244.861,167.989,246.82z"/>
	<path d="M253.989,246.82c-0.225-3.863-1.008-7.698-2.352-11.506c-1.904-5.486-2.855-9.266-2.855-11.338
		c0-2.911,0.685-5.123,2.058-6.635c1.371-1.512,3.065-2.268,5.081-2.268c1.734,0,3.246,0.756,4.535,2.268
		c1.287,1.512,1.932,3.668,1.932,6.467c0,2.52-0.743,6.034-2.226,10.54c-1.484,4.508-2.394,8.665-2.729,12.472
		c3.078-1.959,5.85-4.338,8.314-7.139c3.807-4.422,6.635-7.166,8.482-8.23c1.848-1.063,3.723-1.596,5.627-1.596
		c1.848,0,3.401,0.63,4.661,1.89s1.89,2.758,1.89,4.493c0,2.072-0.924,3.92-2.771,5.543c-1.848,1.625-6.467,3.248-13.857,4.871
		c-4.313,0.953-7.895,2.044-10.75,3.275c2.91,1.512,6.467,2.66,10.666,3.443c6.773,1.232,11.212,2.771,13.312,4.619
		s3.149,3.863,3.149,6.047c0,1.68-0.63,3.137-1.89,4.367c-1.26,1.232-2.729,1.848-4.409,1.848s-3.542-0.588-5.585-1.764
		c-2.045-1.176-4.802-3.807-8.272-7.895c-2.297-2.742-5.152-5.318-8.566-7.727c0.111,3.191,0.756,6.664,1.932,10.414
		c2.016,6.607,3.023,11.115,3.023,13.521c0,2.24-0.672,4.13-2.016,5.669c-1.344,1.54-2.771,2.31-4.283,2.31
		c-2.072,0-3.947-0.811-5.627-2.436c-1.176-1.176-1.764-3.051-1.764-5.627c0-2.688,0.643-5.921,1.932-9.7
		c1.287-3.779,2.1-6.383,2.436-7.811s0.643-3.541,0.924-6.341c-3.305,2.184-6.188,4.619-8.65,7.307
		c-4.088,4.592-7.168,7.504-9.238,8.734c-1.457,0.896-2.969,1.344-4.535,1.344c-1.904,0-3.527-0.643-4.871-1.932
		c-1.344-1.287-2.016-2.715-2.016-4.283c0-1.398,0.573-2.869,1.722-4.409c1.146-1.539,2.868-2.813,5.165-3.821
		c1.512-0.672,4.955-1.567,10.33-2.688c3.471-0.727,6.857-1.791,10.162-3.191c-3.023-1.512-6.635-2.688-10.834-3.527
		c-6.887-1.455-11.143-2.771-12.766-3.947c-2.52-1.848-3.779-4.086-3.779-6.719c0-1.512,0.63-2.897,1.89-4.157
		s2.729-1.89,4.409-1.89c1.848,0,3.807,0.588,5.879,1.764c2.07,1.176,4.646,3.542,7.727,7.097
		C247.66,242.104,250.797,244.861,253.989,246.82z"/>
</g>
<path d="M408.874,391h-8.062v-22.57c0-26.27-22.91-47.648-51.063-47.648c-28.151,0-51.063,21.379-51.063,47.648V391h-8.062
	c-8.902,0-16.126,6.741-16.126,15.047v60.188c0,8.306,7.224,15.047,16.126,15.047h118.248c8.902,0,16.126-6.741,16.126-15.047
	v-60.188C425,397.741,417.777,391,408.874,391z M373.938,391h-48.375v-22.57c0-12.445,10.85-22.57,24.188-22.57
	s24.188,10.125,24.188,22.57V391z"/>

</symbol>
<symbol id="phone" viewBox="0 0 512 512"><path d="M493.4 24.6l-104-24c-11.3-2.6-22.9 3.3-27.5 13.9l-48 112c-4.2 9.8-1.4 21.3 6.9 28l60.6 49.6c-36 76.7-98.9 140.5-177.2 177.2l-49.6-60.6c-6.8-8.3-18.2-11.1-28-6.9l-112 48C3.9 366.5-2 378.1.6 389.4l24 104C27.1 504.2 36.7 512 48 512c256.1 0 464-207.5 464-464 0-11.2-7.7-20.9-18.6-23.4z"/>
</symbol>
<symbol id="radio" viewBox="0 0 512 512"><path d="M504 256c0 136.967-111.033 248-248 248S8 392.967 8 256 119.033 8 256 8s248 111.033 248 248zM227.314 387.314l184-184c6.248-6.248 6.248-16.379 0-22.627l-22.627-22.627c-6.248-6.249-16.379-6.249-22.628 0L216 308.118l-70.059-70.059c-6.248-6.248-16.379-6.248-22.628 0l-22.627 22.627c-6.248 6.248-6.248 16.379 0 22.627l104 104c6.249 6.249 16.379 6.249 22.628.001z"/>
</symbol>
<symbol id="row" viewBox="0 0 448 512">
<path fill="none" stroke="currentColor" stroke-width="21" stroke-miterlimit="10" d="M434.5,493.277c0,6.75-5.373,12.223-12,12.223h-396
	c-6.627,0-12-5.473-12-12.223V24.723c0-6.75,5.373-12.223,12-12.223h396c6.627,0,12,5.473,12,12.223V493.277z"/>
<line fill="none" stroke="currentColor" stroke-width="21" stroke-miterlimit="10" x1="224.5" y1="22.5" x2="224.5" y2="495.5"/>

</symbol>
<symbol id="section" viewBox="0 0 448 512">
<path fill="none" stroke="currentColor" stroke-width="21" stroke-miterlimit="10" d="M426.876,37c5.867,0,10.624,2.688,10.624,6v198
	c0,3.313-4.757,6-10.624,6H19.624C13.758,247,9,244.313,9,241V43c0-3.313,4.757-6,10.624-6H426.876z"/>
<g>
	<path fill="none" stroke="currentColor" stroke-width="21" stroke-miterlimit="10" stroke-dasharray="12.037,12.037" d="
		M427.328,286.501c5.617,0,10.172,5.105,10.172,11.402v168.195c0,6.297-4.555,11.401-10.172,11.401H19.173
		C13.555,477.5,9,472.396,9,466.099V297.903c0-6.297,4.555-11.402,10.172-11.402H427.328L427.328,286.501z"/>
</g>

</symbol>
<symbol id="submit_button" viewBox="0 0 512 512"><path d="M296 384h-80c-13.3 0-24-10.7-24-24V192h-87.7c-17.8 0-26.7-21.5-14.1-34.1L242.3 5.7c7.5-7.5 19.8-7.5 27.3 0l152.2 152.2c12.6 12.6 3.7 34.1-14.1 34.1H320v168c0 13.3-10.7 24-24 24zm216-8v112c0 13.3-10.7 24-24 24H24c-13.3 0-24-10.7-24-24V376c0-13.3 10.7-24 24-24h136v8c0 30.9 25.1 56 56 56h80c30.9 0 56-25.1 56-56v-8h136c13.3 0 24 10.7 24 24zm-124 88c0-11-9-20-20-20s-20 9-20 20 9 20 20 20 20-9 20-20zm64 0c0-11-9-20-20-20s-20 9-20 20 9 20 20 20 20-9 20-20z"/>
</symbol>
<symbol id="svg" viewBox="0 0 448 512">
<rect x="11.5" y="39.5" fill="none" stroke="currentColor" stroke-width="20" stroke-miterlimit="10" width="430" height="430"/>
<g>
	<path d="M146.638,178.464l0.784,39.908H144.5c-1.38-10.006-4.767-18.056-10.161-24.148c-5.396-6.092-11.23-9.138-17.505-9.138
		c-4.848,0-8.688,1.604-11.516,4.812c-2.828,3.209-4.243,6.901-4.243,11.081c0,2.649,0.5,5.003,1.498,7.063
		c1.378,2.768,3.588,5.505,6.631,8.211c2.234,1.942,7.391,5.386,15.473,10.33c11.312,6.887,18.941,13.392,22.888,19.513
		c3.897,6.123,5.847,13.126,5.847,21.014c0,10.008-3.149,18.614-9.448,25.826c-6.299,7.211-14.296,10.815-23.994,10.815
		c-3.042,0-5.917-0.383-8.627-1.147c-2.709-0.766-6.108-2.208-10.196-4.326c-2.282-1.178-4.16-1.767-5.633-1.767
		c-1.236,0-2.542,0.589-3.922,1.767c-1.379,1.176-2.495,2.972-3.351,5.385h-2.639v-45.206h2.639
		c2.091,12.715,6.12,22.413,12.085,29.093c5.965,6.682,12.396,10.021,19.288,10.021c5.323,0,9.565-1.795,12.728-5.386
		c3.161-3.591,4.741-7.77,4.741-12.538c0-2.825-0.606-5.562-1.819-8.211c-1.211-2.648-3.054-5.165-5.525-7.549
		c-2.472-2.385-6.845-5.487-13.12-9.315c-8.795-5.355-15.116-9.919-18.967-13.686c-3.85-3.766-6.81-7.976-8.877-12.626
		c-2.068-4.648-3.102-9.77-3.102-15.363c0-9.536,2.828-17.659,8.485-24.369c5.658-6.71,12.787-10.065,21.391-10.065
		c3.138,0,6.18,0.472,9.128,1.412c2.233,0.707,4.955,2.017,8.164,3.929c3.209,1.913,5.455,2.869,6.738,2.869
		c1.237,0,2.211-0.47,2.924-1.413c0.713-0.94,1.378-3.208,1.997-6.798H146.638z"/>
	<path d="M263.219,181.201v3.267c-3.518,0.707-6.655,3.033-9.412,6.975c-1.995,2.944-4.968,9.86-8.912,20.749l-33.299,91.472h-2.353
		l-33.156-95.18c-3.993-11.479-6.666-18.218-8.021-20.219c-1.354-2-3.911-3.267-7.665-3.797v-3.267h46.347v3.267h-1.568
		c-4.183,0-7.036,0.648-8.557,1.942c-1.093,0.883-1.64,2.178-1.64,3.885c0,1.06,0.19,2.311,0.57,3.752
		c0.38,1.443,1.664,5.313,3.851,11.611l20.606,59.598l19.109-53.064c2.282-6.415,3.684-10.712,4.208-12.891
		c0.522-2.176,0.784-4.03,0.784-5.563c0-1.766-0.381-3.324-1.142-4.679c-0.761-1.354-1.878-2.384-3.351-3.09
		c-2.044-1.001-4.755-1.501-8.129-1.501v-3.267H263.219z"/>
	<path d="M365.469,178.464v42.204h-2.64c-3.185-11.536-7.962-20.307-14.333-26.311c-6.368-6.004-13.333-9.006-20.89-9.006
		c-7.227,0-13.24,2.516-18.04,7.549c-4.802,5.033-8.2,12.052-10.197,21.058c-1.996,9.006-2.994,18.248-2.994,27.724
		c0,11.479,1.093,21.544,3.279,30.197c2.188,8.653,5.718,15.01,10.589,19.071c4.873,4.063,10.66,6.092,17.363,6.092
		c2.328,0,4.717-0.309,7.165-0.927s4.956-1.516,7.522-2.692v-24.898c0-4.709-0.262-7.756-0.783-9.139
		c-0.523-1.383-1.605-2.635-3.246-3.753c-1.64-1.117-3.623-1.678-5.952-1.678h-2.497v-3.267h46.989v3.267
		c-3.564,0.296-6.048,0.897-7.451,1.81c-1.403,0.914-2.483,2.429-3.244,4.547c-0.428,1.118-0.641,3.855-0.641,8.212v24.898
		c-6.181,3.414-12.609,5.989-19.288,7.726s-13.606,2.604-20.785,2.604c-9.175,0-16.792-1.545-22.854-4.636
		c-6.06-3.089-11.407-7.151-16.042-12.185c-4.636-5.032-8.26-10.696-10.875-16.996c-3.327-8.123-4.99-17.217-4.99-27.283
		c0-18.012,5.11-33.228,15.33-45.647c10.22-12.418,23.078-18.63,38.574-18.63c4.802,0,9.128,0.473,12.978,1.413
		c2.092,0.472,5.479,1.81,10.161,4.018c4.681,2.208,7.451,3.311,8.306,3.311c1.332,0,2.568-0.604,3.709-1.81
		c1.14-1.205,2.187-3.488,3.137-6.842H365.469z"/>
</g>

</symbol>
<symbol id="text" viewBox="0 0 448 512">
<path d="M115.445,81.778h224c6.873,0,12.444,5.571,12.444,12.444v74.667c0,6.874-5.571,12.445-12.444,12.445h-27.608
	c-6.873,0-12.444-5.571-12.444-12.445v-37.333H256.8v248.889h26.645c6.873,0,12.444,5.571,12.444,12.444v24.889
	c0,6.874-5.571,12.445-12.444,12.445h-112c-6.873,0-12.444-5.571-12.444-12.445v-24.889c0-6.873,5.571-12.444,12.444-12.444h26.645
	V131.556h-42.592v37.333c0,6.874-5.571,12.445-12.445,12.445h-27.607c-6.873,0-12.444-5.571-12.444-12.445V94.222
	C103,87.349,108.572,81.778,115.445,81.778z"/>

</symbol>
<symbol id="textnode" viewBox="0 0 448 512">
<path d="M115.445,81.778h224c6.873,0,12.444,5.571,12.444,12.444v74.667c0,6.874-5.571,12.445-12.444,12.445h-27.608
	c-6.873,0-12.444-5.571-12.444-12.445v-37.333H256.8v248.889h26.645c6.873,0,12.444,5.571,12.444,12.444v24.889
	c0,6.874-5.571,12.445-12.444,12.445h-112c-6.873,0-12.444-5.571-12.444-12.445v-24.889c0-6.873,5.571-12.444,12.444-12.444h26.645
	V131.556h-42.592v37.333c0,6.874-5.571,12.445-12.445,12.445h-27.607c-6.873,0-12.444-5.571-12.444-12.445V94.222
	C103,87.349,108.572,81.778,115.445,81.778z"/>

</symbol>
<symbol id="textnode_heading" viewBox="0 0 448 512">
<g>
	<path d="M136.567,243.724h174.082V120.638c0-21.993-1.198-36.482-3.593-43.461c-1.842-5.284-5.711-9.834-11.605-13.641
		c-7.921-5.076-16.303-7.614-25.145-7.614h-13.263V44.185H417.31v11.737h-13.264c-8.843,0-17.228,2.434-25.146,7.296
		c-5.897,3.385-9.905,8.516-12.02,15.386c-2.122,6.875-3.178,20.888-3.178,42.033v277.578c0,21.785,1.194,36.164,3.591,43.145
		c1.839,5.288,5.616,9.833,11.33,13.641c8.104,5.075,16.579,7.612,25.422,7.612h13.264v11.738H257.043v-11.738h13.263
		c15.289,0,26.431-5.18,33.435-15.544c4.603-6.766,6.908-23.049,6.908-48.854V267.198H136.567v131.018
		c0,21.785,1.196,36.164,3.592,43.145c1.839,5.288,5.708,9.833,11.605,13.641c7.918,5.075,16.303,7.612,25.145,7.612h13.541v11.738
		H29.906v-11.738h13.263c15.474,0,26.709-5.18,33.712-15.544c4.421-6.766,6.632-23.049,6.632-48.854V120.638
		c0-21.993-1.2-36.482-3.593-43.461c-1.843-5.284-5.621-9.834-11.329-13.641c-8.108-5.076-16.579-7.614-25.422-7.614H29.906V44.185
		h160.543v11.737h-13.541c-8.841,0-17.227,2.434-25.145,7.296c-5.712,3.385-9.671,8.516-11.882,15.386
		c-2.21,6.875-3.315,20.888-3.315,42.033V243.724z"/>
</g>

</symbol>
<symbol id="textnode_svg" viewBox="0 0 448 512">
<rect x="11.5" y="39.5" fill="none" stroke="currentColor" stroke-width="20" stroke-miterlimit="10" width="430" height="430"/>
<g>
	<path d="M146.638,178.464l0.784,39.908H144.5c-1.38-10.006-4.767-18.056-10.161-24.148c-5.396-6.092-11.23-9.138-17.505-9.138
		c-4.848,0-8.688,1.604-11.516,4.812c-2.828,3.209-4.243,6.901-4.243,11.081c0,2.649,0.5,5.003,1.498,7.063
		c1.378,2.768,3.588,5.505,6.631,8.211c2.234,1.942,7.391,5.386,15.473,10.33c11.312,6.887,18.941,13.392,22.888,19.513
		c3.897,6.123,5.847,13.126,5.847,21.014c0,10.008-3.149,18.614-9.448,25.826c-6.299,7.211-14.296,10.815-23.994,10.815
		c-3.042,0-5.917-0.383-8.627-1.147c-2.709-0.766-6.108-2.208-10.196-4.326c-2.282-1.178-4.16-1.767-5.633-1.767
		c-1.236,0-2.542,0.589-3.922,1.767c-1.379,1.176-2.495,2.972-3.351,5.385h-2.639v-45.206h2.639
		c2.091,12.715,6.12,22.413,12.085,29.093c5.965,6.682,12.396,10.021,19.288,10.021c5.323,0,9.565-1.795,12.728-5.386
		c3.161-3.591,4.741-7.77,4.741-12.538c0-2.825-0.606-5.562-1.819-8.211c-1.211-2.648-3.054-5.165-5.525-7.549
		c-2.472-2.385-6.845-5.487-13.12-9.315c-8.795-5.355-15.116-9.919-18.967-13.686c-3.85-3.766-6.81-7.976-8.877-12.626
		c-2.068-4.648-3.102-9.77-3.102-15.363c0-9.536,2.828-17.659,8.485-24.369c5.658-6.71,12.787-10.065,21.391-10.065
		c3.138,0,6.18,0.472,9.128,1.412c2.233,0.707,4.955,2.017,8.164,3.929c3.209,1.913,5.455,2.869,6.738,2.869
		c1.237,0,2.211-0.47,2.924-1.413c0.713-0.94,1.378-3.208,1.997-6.798H146.638z"/>
	<path d="M263.219,181.201v3.267c-3.518,0.707-6.655,3.033-9.412,6.975c-1.995,2.944-4.968,9.86-8.912,20.749l-33.299,91.472h-2.353
		l-33.156-95.18c-3.993-11.479-6.666-18.218-8.021-20.219c-1.354-2-3.911-3.267-7.665-3.797v-3.267h46.347v3.267h-1.568
		c-4.183,0-7.036,0.648-8.557,1.942c-1.093,0.883-1.64,2.178-1.64,3.885c0,1.06,0.19,2.311,0.57,3.752
		c0.38,1.443,1.664,5.313,3.851,11.611l20.606,59.598l19.109-53.064c2.282-6.415,3.684-10.712,4.208-12.891
		c0.522-2.176,0.784-4.03,0.784-5.563c0-1.766-0.381-3.324-1.142-4.679c-0.761-1.354-1.878-2.384-3.351-3.09
		c-2.044-1.001-4.755-1.501-8.129-1.501v-3.267H263.219z"/>
	<path d="M365.469,178.464v42.204h-2.64c-3.185-11.536-7.962-20.307-14.333-26.311c-6.368-6.004-13.333-9.006-20.89-9.006
		c-7.227,0-13.24,2.516-18.04,7.549c-4.802,5.033-8.2,12.052-10.197,21.058c-1.996,9.006-2.994,18.248-2.994,27.724
		c0,11.479,1.093,21.544,3.279,30.197c2.188,8.653,5.718,15.01,10.589,19.071c4.873,4.063,10.66,6.092,17.363,6.092
		c2.328,0,4.717-0.309,7.165-0.927s4.956-1.516,7.522-2.692v-24.898c0-4.709-0.262-7.756-0.783-9.139
		c-0.523-1.383-1.605-2.635-3.246-3.753c-1.64-1.117-3.623-1.678-5.952-1.678h-2.497v-3.267h46.989v3.267
		c-3.564,0.296-6.048,0.897-7.451,1.81c-1.403,0.914-2.483,2.429-3.244,4.547c-0.428,1.118-0.641,3.855-0.641,8.212v24.898
		c-6.181,3.414-12.609,5.989-19.288,7.726s-13.606,2.604-20.785,2.604c-9.175,0-16.792-1.545-22.854-4.636
		c-6.06-3.089-11.407-7.151-16.042-12.185c-4.636-5.032-8.26-10.696-10.875-16.996c-3.327-8.123-4.99-17.217-4.99-27.283
		c0-18.012,5.11-33.228,15.33-45.647c10.22-12.418,23.078-18.63,38.574-18.63c4.802,0,9.128,0.473,12.978,1.413
		c2.092,0.472,5.479,1.81,10.161,4.018c4.681,2.208,7.451,3.311,8.306,3.311c1.332,0,2.568-0.604,3.709-1.81
		c1.14-1.205,2.187-3.488,3.137-6.842H365.469z"/>
</g>

</symbol>
<symbol id="text_area" viewBox="0 0 448 512">
<path fill="none" stroke="currentColor" stroke-width="21" stroke-miterlimit="10" d="M434.5,398.236c0,4.011-5.373,7.264-12,7.264h-396
	c-6.627,0-12-3.253-12-7.264V119.765c0-4.012,5.373-7.265,12-7.265h396c6.627,0,12,3.253,12,7.265V398.236z"/>
<line fill="none" stroke="currentColor" stroke-width="21" stroke-miterlimit="10" x1="84.5" y1="201.5" x2="84.5" y2="292.5"/>

</symbol></svg>