<?xml version="1.0" encoding="utf-8"?>
<svg xmlns="http://www.w3.org/2000/svg">
<symbol id="desktop" viewBox="0 0 576 512"><path d="M528 0H48C21.5 0 0 21.5 0 48v320c0 26.5 21.5 48 48 48h192l-16 48h-72c-13.3 0-24 10.7-24 24s10.7 24 24 24h272c13.3 0 24-10.7 24-24s-10.7-24-24-24h-72l-16-48h192c26.5 0 48-21.5 48-48V48c0-26.5-21.5-48-48-48zm-16 352H64V64h448v288z"/>
</symbol>
<symbol id="laptop" viewBox="0 0 640 512"><path d="M624 416H381.54c-.74 19.81-14.71 32-32.74 32H288c-18.69 0-33.02-17.47-32.77-32H16c-8.8 0-16 7.2-16 16v16c0 35.2 28.8 64 64 64h512c35.2 0 64-28.8 64-64v-16c0-8.8-7.2-16-16-16zM576 48c0-26.4-21.6-48-48-48H112C85.6 0 64 21.6 64 48v336h512V48zm-64 272H128V64h384v256z"/>
</symbol>
<symbol id="mobile-landscape" viewBox="0 0 448 512">
<path d="M0,155.2v201.6C0,380.65,18.813,400,42,400h364C429.187,400,448,380.65,448,356.8V155.2c0-23.85-18.813-43.2-42.001-43.2H42
	C18.813,112,0,131.35,0,155.2z M420,256c0,15.931-12.512,28.8-28.001,28.8C376.513,284.8,364,271.931,364,256
	c0-15.93,12.513-28.8,27.999-28.8C407.489,227.2,420,240.07,420,256z"/>

</symbol>
<symbol id="mobile" viewBox="0 0 320 512"><path d="M272 0H48C21.5 0 0 21.5 0 48v416c0 26.5 21.5 48 48 48h224c26.5 0 48-21.5 48-48V48c0-26.5-21.5-48-48-48zM160 480c-17.7 0-32-14.3-32-32s14.3-32 32-32 32 14.3 32 32-14.3 32-32 32z"/>
</symbol>
<symbol id="tablet-landscape" viewBox="0 0 448 512">
<path d="M1.466,102.32V409.68c0,23.14,18.774,41.912,41.913,41.912h363.243c23.14,0,41.913-18.772,41.913-41.912V102.32
	c0-23.139-18.773-41.913-41.913-41.913H43.379C20.24,60.408,1.466,79.181,1.466,102.32z M420.592,256
	c0,15.456-12.485,27.941-27.941,27.941c-15.455,0-27.941-12.485-27.941-27.941c0-15.455,12.486-27.941,27.941-27.941
	C408.107,228.059,420.592,240.545,420.592,256z"/>

</symbol>
<symbol id="tablet" viewBox="0 0 448 512"><path d="M400 0H48C21.5 0 0 21.5 0 48v416c0 26.5 21.5 48 48 48h352c26.5 0 48-21.5 48-48V48c0-26.5-21.5-48-48-48zM224 480c-17.7 0-32-14.3-32-32s14.3-32 32-32 32 14.3 32 32-14.3 32-32 32z"/>
</symbol></svg>