<?xml version="1.0" encoding="utf-8"?>
<svg xmlns="http://www.w3.org/2000/svg">
<symbol id="align-center" viewBox="0 0 448 512"><path d="M352 44v40c0 8.837-7.163 16-16 16H112c-8.837 0-16-7.163-16-16V44c0-8.837 7.163-16 16-16h224c8.837 0 16 7.163 16 16zM16 228h416c8.837 0 16-7.163 16-16v-40c0-8.837-7.163-16-16-16H16c-8.837 0-16 7.163-16 16v40c0 8.837 7.163 16 16 16zm0 256h416c8.837 0 16-7.163 16-16v-40c0-8.837-7.163-16-16-16H16c-8.837 0-16 7.163-16 16v40c0 8.837 7.163 16 16 16zm320-200H112c-8.837 0-16 7.163-16 16v40c0 8.837 7.163 16 16 16h224c8.837 0 16-7.163 16-16v-40c0-8.837-7.163-16-16-16z"/>
</symbol>
<symbol id="align-items-baseline" viewBox="0 0 448 512">
<path d="M309,56h-40c-8.837,0-16,7.163-16,16v416c0,8.837,7.163,16,16,16h40c8.837,0,16-7.163,16-16V72
	C325,63.163,317.837,56,309,56z M197,325V69c0-8.837-7.163-16-16-16h-40c-8.837,0-16,7.163-16,16v256c0,8.837,7.163,16,16,16h40
	C189.837,341,197,333.837,197,325z M436.5,218.5h-422V176h422V218.5z M188.5,167.5h-55v-104h55V167.5z M316.5,169.5h-55v-104h55
	V169.5z"/>

</symbol>
<symbol id="align-items-center" viewBox="0 0 448 512">
<path d="M141,460.5h40c8.837,0,16-7.163,16-16v-416c0-8.837-7.163-16-16-16h-40c-8.837,0-16,7.163-16,16v416
	C125,453.337,132.163,460.5,141,460.5z M253,131.5v256c0,8.837,7.163,16,16,16h40c8.837,0,16-7.163,16-16v-256
	c0-8.837-7.163-16-16-16h-40C260.163,115.5,253,122.663,253,131.5z M13,237h422v42.5H13V237z"/>

</symbol>
<symbol id="align-items-end" viewBox="0 0 448 512">
<path d="M141,460.5h40c8.837,0,16-7.163,16-16v-416c0-8.837-7.163-16-16-16h-40c-8.837,0-16,7.163-16,16v416
	C125,453.337,132.163,460.5,141,460.5z M253,191.5v256c0,8.837,7.163,16,16,16h40c8.837,0,16-7.163,16-16v-256
	c0-8.837-7.163-16-16-16h-40C260.163,175.5,253,182.663,253,191.5z M13.5,461.5h422V504h-422V461.5z"/>

</symbol>
<symbol id="align-items-start" viewBox="0 0 448 512">
<path d="M308,56h-40c-8.837,0-16,7.163-16,16v416c0,8.837,7.163,16,16,16h40c8.837,0,16-7.163,16-16V72
	C324,63.163,316.837,56,308,56z M196,325V69c0-8.837-7.163-16-16-16h-40c-8.837,0-16,7.163-16,16v256c0,8.837,7.163,16,16,16h40
	C188.837,341,196,333.837,196,325z M435.5,55h-422V12.5h422V55z"/>

</symbol>
<symbol id="align-items-stretch" viewBox="0 0 448 512">
<path d="M141,461.5h40c8.837,0,16-7.179,16-16.036V28.536c0-8.856-7.163-16.036-16-16.036h-40c-8.837,0-16,7.179-16,16.036v416.928
	C125,454.321,132.163,461.5,141,461.5z M253,38.973v399.556c0,13.792,7.163,24.972,16,24.972h40c8.837,0,16-11.18,16-24.972V38.973
	C325,25.181,317.837,14,309,14h-40C260.163,14,253,25.181,253,38.973z M13.5,461.5h422V504h-422V461.5z M12.5,14h422v42.5h-422V14z"/>

</symbol>
<symbol id="align-justify" viewBox="0 0 448 512"><path d="M0 84V44c0-8.837 7.163-16 16-16h416c8.837 0 16 7.163 16 16v40c0 8.837-7.163 16-16 16H16c-8.837 0-16-7.163-16-16zm16 144h416c8.837 0 16-7.163 16-16v-40c0-8.837-7.163-16-16-16H16c-8.837 0-16 7.163-16 16v40c0 8.837 7.163 16 16 16zm0 256h416c8.837 0 16-7.163 16-16v-40c0-8.837-7.163-16-16-16H16c-8.837 0-16 7.163-16 16v40c0 8.837 7.163 16 16 16zm0-128h416c8.837 0 16-7.163 16-16v-40c0-8.837-7.163-16-16-16H16c-8.837 0-16 7.163-16 16v40c0 8.837 7.163 16 16 16z"/>
</symbol>
<symbol id="align-left" viewBox="0 0 448 512"><path d="M288 44v40c0 8.837-7.163 16-16 16H16c-8.837 0-16-7.163-16-16V44c0-8.837 7.163-16 16-16h256c8.837 0 16 7.163 16 16zM0 172v40c0 8.837 7.163 16 16 16h416c8.837 0 16-7.163 16-16v-40c0-8.837-7.163-16-16-16H16c-8.837 0-16 7.163-16 16zm16 312h416c8.837 0 16-7.163 16-16v-40c0-8.837-7.163-16-16-16H16c-8.837 0-16 7.163-16 16v40c0 8.837 7.163 16 16 16zm256-200H16c-8.837 0-16 7.163-16 16v40c0 8.837 7.163 16 16 16h256c8.837 0 16-7.163 16-16v-40c0-8.837-7.163-16-16-16z"/>
</symbol>
<symbol id="align-right" viewBox="0 0 448 512"><path d="M160 84V44c0-8.837 7.163-16 16-16h256c8.837 0 16 7.163 16 16v40c0 8.837-7.163 16-16 16H176c-8.837 0-16-7.163-16-16zM16 228h416c8.837 0 16-7.163 16-16v-40c0-8.837-7.163-16-16-16H16c-8.837 0-16 7.163-16 16v40c0 8.837 7.163 16 16 16zm0 256h416c8.837 0 16-7.163 16-16v-40c0-8.837-7.163-16-16-16H16c-8.837 0-16 7.163-16 16v40c0 8.837 7.163 16 16 16zm160-128h256c8.837 0 16-7.163 16-16v-40c0-8.837-7.163-16-16-16H176c-8.837 0-16 7.163-16 16v40c0 8.837 7.163 16 16 16z"/>
</symbol>
<symbol id="bold" viewBox="0 0 384 512"><path d="M304.793 243.891c33.639-18.537 53.657-54.16 53.657-95.693 0-48.236-26.25-87.626-68.626-104.179C265.138 34.01 240.849 32 209.661 32H24c-8.837 0-16 7.163-16 16v33.049c0 8.837 7.163 16 16 16h33.113v318.53H24c-8.837 0-16 7.163-16 16V464c0 8.837 7.163 16 16 16h195.69c24.203 0 44.834-1.289 66.866-7.584C337.52 457.193 376 410.647 376 350.014c0-52.168-26.573-91.684-71.207-106.123zM142.217 100.809h67.444c16.294 0 27.536 2.019 37.525 6.717 15.828 8.479 24.906 26.502 24.906 49.446 0 35.029-20.32 56.79-53.029 56.79h-76.846V100.809zm112.642 305.475c-10.14 4.056-22.677 4.907-31.409 4.907h-81.233V281.943h84.367c39.645 0 63.057 25.38 63.057 63.057.001 28.425-13.66 52.483-34.782 61.284z"/>
</symbol>
<symbol id="border-all" viewBox="0 0 448 512"><path fill="currentColor" d="M416 32H32A32 32 0 0 0 0 64v384a32 32 0 0 0 32 32h384a32 32 0 0 0 32-32V64a32 32 0 0 0-32-32zm-32 64v128H256V96zm-192 0v128H64V96zM64 416V288h128v128zm192 0V288h128v128z" class=""/>
</symbol>
<symbol id="border-bottom" viewBox="0 0 448 512">
<path d="M240,224h-32c-8.837,0-16,7.164-16,16v32c0,8.836,7.163,16,16,16h32c8.836,0,16-7.164,16-16v-32
	C256,231.164,248.836,224,240,224z M336,224h-32c-8.837,0-16,7.164-16,16v32c0,8.836,7.163,16,16,16h32c8.836,0,16-7.164,16-16v-32
	C352,231.164,344.836,224,336,224z M432,224h-32c-8.837,0-16,7.164-16,16v32c0,8.836,7.163,16,16,16h32c8.836,0,16-7.164,16-16v-32
	C448,231.164,440.836,224,432,224z M144,224h-32c-8.837,0-16,7.164-16,16v32c0,8.836,7.163,16,16,16h32c8.836,0,16-7.164,16-16v-32
	C160,231.164,152.836,224,144,224z M432,320h-32c-8.837,0-16,7.164-16,16v32c0,8.836,7.163,16,16,16h32c8.836,0,16-7.164,16-16v-32
	C448,327.164,440.836,320,432,320z M432,128h-32c-8.837,0-16,7.164-16,16v32c0,8.836,7.163,16,16,16h32c8.836,0,16-7.164,16-16v-32
	C448,135.164,440.836,128,432,128z M240,320h-32c-8.837,0-16,7.164-16,16v32c0,8.836,7.163,16,16,16h32c8.836,0,16-7.164,16-16v-32
	C256,327.164,248.836,320,240,320z M240,128h-32c-8.837,0-16,7.164-16,16v32c0,8.836,7.163,16,16,16h32c8.836,0,16-7.164,16-16v-32
	C256,135.164,248.836,128,240,128z M240,32h-32c-8.837,0-16,7.164-16,16v32c0,8.836,7.163,16,16,16h32c8.836,0,16-7.164,16-16V48
	C256,39.164,248.836,32,240,32z M336,32h-32c-8.837,0-16,7.164-16,16v32c0,8.836,7.163,16,16,16h32c8.836,0,16-7.164,16-16V48
	C352,39.164,344.836,32,336,32z M432,32h-32c-8.837,0-16,7.164-16,16v32c0,8.836,7.163,16,16,16h32c8.836,0,16-7.164,16-16V48
	C448,39.164,440.836,32,432,32z M48,224H16c-8.837,0-16,7.164-16,16v32c0,8.836,7.163,16,16,16h32c8.836,0,16-7.164,16-16v-32
	C64,231.164,56.836,224,48,224z M48,320H16c-8.837,0-16,7.164-16,16v32c0,8.836,7.163,16,16,16h32c8.836,0,16-7.164,16-16v-32
	C64,327.164,56.836,320,48,320z M48,128H16c-8.837,0-16,7.164-16,16v32c0,8.836,7.163,16,16,16h32c8.836,0,16-7.164,16-16v-32
	C64,135.164,56.836,128,48,128z M48,32H16C7.163,32,0,39.164,0,48v32c0,8.836,7.163,16,16,16h32c8.836,0,16-7.164,16-16V48
	C64,39.164,56.836,32,48,32z M144,32h-32c-8.837,0-16,7.164-16,16v32c0,8.836,7.163,16,16,16h32c8.836,0,16-7.164,16-16V48
	C160,39.164,152.836,32,144,32z M448,480H0v-65h448V480z"/>

</symbol>
<symbol id="border-dashed" viewBox="0 0 448 512">
<rect y="212.429" fill="currentColor" width="144" height="50"/>
<rect x="159.143" y="212.429" fill="currentColor" width="144" height="50"/>
<rect x="317.857" y="212.429" fill="currentColor" width="144" height="50"/>
<g>
</g>
<g>
</g>
<g>
</g>
<g>
</g>
<g>
</g>
<g>
</g>

</symbol>
<symbol id="border-dotted" viewBox="0 0 448 512">
<g>
	<g>
		<g>
			<g>
				<rect x="9" y="209.073" fill="currentColor" width="42.974" height="88.867"/>
				<rect x="72.999" y="209.073" fill="currentColor" width="42.974" height="88.867"/>
				<rect x="136.993" y="209.073" fill="currentColor" width="42.974" height="88.867"/>
				<rect x="201.005" y="209.073" fill="currentColor" width="42.964" height="88.867"/>
				<rect x="264.995" y="209.073" fill="currentColor" width="42.974" height="88.867"/>
				<rect x="329.007" y="209.073" fill="currentColor" width="42.97" height="88.867"/>
				<rect x="392.997" y="209.073" fill="currentColor" width="42.964" height="88.867"/>
			</g>
		</g>
	</g>
</g>
<g>
</g>
<g>
</g>
<g>
</g>
<g>
</g>
<g>
</g>
<g>
</g>

</symbol>
<symbol id="border-double" viewBox="0 0 448 512">
<line fill="none" stroke="currentColor" stroke-width="50" stroke-miterlimit="10" x1="0" y1="116.714" x2="448" y2="116.714"/>
<line fill="none" stroke="currentColor" stroke-width="50" stroke-miterlimit="10" x1="-2.857" y1="353.143" x2="445.143" y2="353.143"/>
<g>
</g>
<g>
</g>
<g>
</g>
<g>
</g>
<g>
</g>
<g>
</g>

</symbol>
<symbol id="border-left" viewBox="0 0 448 512">
<path fill="currentColor" d="M240,225h-32c-8.837,0-16,7.164-16,16v32c0,8.836,7.163,16,16,16h32c8.836,0,16-7.164,16-16v-32
	C256,232.164,248.836,225,240,225z M336,225h-32c-8.837,0-16,7.164-16,16v32c0,8.836,7.163,16,16,16h32c8.836,0,16-7.164,16-16v-32
	C352,232.164,344.836,225,336,225z M432,225h-32c-8.837,0-16,7.164-16,16v32c0,8.836,7.163,16,16,16h32c8.836,0,16-7.164,16-16v-32
	C448,232.164,440.836,225,432,225z M144,225h-32c-8.837,0-16,7.164-16,16v32c0,8.836,7.163,16,16,16h32c8.836,0,16-7.164,16-16v-32
	C160,232.164,152.836,225,144,225z M240,417h-32c-8.837,0-16,7.163-16,16v32c0,8.837,7.163,16,16,16h32c8.836,0,16-7.163,16-16v-32
	C256,424.163,248.836,417,240,417z M336,417h-32c-8.837,0-16,7.163-16,16v32c0,8.837,7.163,16,16,16h32c8.836,0,16-7.163,16-16v-32
	C352,424.163,344.836,417,336,417z M432,417h-32c-8.837,0-16,7.163-16,16v32c0,8.837,7.163,16,16,16h32c8.836,0,16-7.163,16-16v-32
	C448,424.163,440.836,417,432,417z M432,321h-32c-8.837,0-16,7.164-16,16v32c0,8.836,7.163,16,16,16h32c8.836,0,16-7.164,16-16v-32
	C448,328.164,440.836,321,432,321z M432,129h-32c-8.837,0-16,7.164-16,16v32c0,8.836,7.163,16,16,16h32c8.836,0,16-7.164,16-16v-32
	C448,136.164,440.836,129,432,129z M240,321h-32c-8.837,0-16,7.164-16,16v32c0,8.836,7.163,16,16,16h32c8.836,0,16-7.164,16-16v-32
	C256,328.164,248.836,321,240,321z M240,129h-32c-8.837,0-16,7.164-16,16v32c0,8.836,7.163,16,16,16h32c8.836,0,16-7.164,16-16v-32
	C256,136.164,248.836,129,240,129z M144,417h-32c-8.837,0-16,7.163-16,16v32c0,8.837,7.163,16,16,16h32c8.836,0,16-7.163,16-16v-32
	C160,424.163,152.836,417,144,417z M240,33h-32c-8.837,0-16,7.164-16,16v32c0,8.836,7.163,16,16,16h32c8.836,0,16-7.164,16-16V49
	C256,40.164,248.836,33,240,33z M336,33h-32c-8.837,0-16,7.164-16,16v32c0,8.836,7.163,16,16,16h32c8.836,0,16-7.164,16-16V49
	C352,40.164,344.836,33,336,33z M432,33h-32c-8.837,0-16,7.164-16,16v32c0,8.836,7.163,16,16,16h32c8.836,0,16-7.164,16-16V49
	C448,40.164,440.836,33,432,33z M64,480H0V32h64V480z M144,33h-32c-8.837,0-16,7.164-16,16v32c0,8.836,7.163,16,16,16h32
	c8.836,0,16-7.164,16-16V49C160,40.164,152.836,33,144,33z"/>
<g>
</g>
<g>
</g>
<g>
</g>
<g>
</g>
<g>
</g>
<g>
</g>

</symbol>
<symbol id="border-none" viewBox="0 0 448 512"><path fill="currentColor" d="M240 224h-32a16 16 0 0 0-16 16v32a16 16 0 0 0 16 16h32a16 16 0 0 0 16-16v-32a16 16 0 0 0-16-16zm96 0h-32a16 16 0 0 0-16 16v32a16 16 0 0 0 16 16h32a16 16 0 0 0 16-16v-32a16 16 0 0 0-16-16zm96 0h-32a16 16 0 0 0-16 16v32a16 16 0 0 0 16 16h32a16 16 0 0 0 16-16v-32a16 16 0 0 0-16-16zm-288 0h-32a16 16 0 0 0-16 16v32a16 16 0 0 0 16 16h32a16 16 0 0 0 16-16v-32a16 16 0 0 0-16-16zm96 192h-32a16 16 0 0 0-16 16v32a16 16 0 0 0 16 16h32a16 16 0 0 0 16-16v-32a16 16 0 0 0-16-16zm96 0h-32a16 16 0 0 0-16 16v32a16 16 0 0 0 16 16h32a16 16 0 0 0 16-16v-32a16 16 0 0 0-16-16zm96 0h-32a16 16 0 0 0-16 16v32a16 16 0 0 0 16 16h32a16 16 0 0 0 16-16v-32a16 16 0 0 0-16-16zm0-96h-32a16 16 0 0 0-16 16v32a16 16 0 0 0 16 16h32a16 16 0 0 0 16-16v-32a16 16 0 0 0-16-16zm0-192h-32a16 16 0 0 0-16 16v32a16 16 0 0 0 16 16h32a16 16 0 0 0 16-16v-32a16 16 0 0 0-16-16zM240 320h-32a16 16 0 0 0-16 16v32a16 16 0 0 0 16 16h32a16 16 0 0 0 16-16v-32a16 16 0 0 0-16-16zm0-192h-32a16 16 0 0 0-16 16v32a16 16 0 0 0 16 16h32a16 16 0 0 0 16-16v-32a16 16 0 0 0-16-16zm-96 288h-32a16 16 0 0 0-16 16v32a16 16 0 0 0 16 16h32a16 16 0 0 0 16-16v-32a16 16 0 0 0-16-16zm96-384h-32a16 16 0 0 0-16 16v32a16 16 0 0 0 16 16h32a16 16 0 0 0 16-16V48a16 16 0 0 0-16-16zm96 0h-32a16 16 0 0 0-16 16v32a16 16 0 0 0 16 16h32a16 16 0 0 0 16-16V48a16 16 0 0 0-16-16zm96 0h-32a16 16 0 0 0-16 16v32a16 16 0 0 0 16 16h32a16 16 0 0 0 16-16V48a16 16 0 0 0-16-16zM48 224H16a16 16 0 0 0-16 16v32a16 16 0 0 0 16 16h32a16 16 0 0 0 16-16v-32a16 16 0 0 0-16-16zm0 192H16a16 16 0 0 0-16 16v32a16 16 0 0 0 16 16h32a16 16 0 0 0 16-16v-32a16 16 0 0 0-16-16zm0-96H16a16 16 0 0 0-16 16v32a16 16 0 0 0 16 16h32a16 16 0 0 0 16-16v-32a16 16 0 0 0-16-16zm0-192H16a16 16 0 0 0-16 16v32a16 16 0 0 0 16 16h32a16 16 0 0 0 16-16v-32a16 16 0 0 0-16-16zm0-96H16A16 16 0 0 0 0 48v32a16 16 0 0 0 16 16h32a16 16 0 0 0 16-16V48a16 16 0 0 0-16-16zm96 0h-32a16 16 0 0 0-16 16v32a16 16 0 0 0 16 16h32a16 16 0 0 0 16-16V48a16 16 0 0 0-16-16z" class=""/>
</symbol>
<symbol id="border-right" viewBox="0 0 448 512">
<path fill="currentColor" d="M240,225h-32c-8.837,0-16,7.164-16,16v32c0,8.836,7.163,16,16,16h32c8.836,0,16-7.164,16-16v-32
	C256,232.164,248.836,225,240,225z M336,225h-32c-8.837,0-16,7.164-16,16v32c0,8.836,7.163,16,16,16h32c8.836,0,16-7.164,16-16v-32
	C352,232.164,344.836,225,336,225z M144,225h-32c-8.837,0-16,7.164-16,16v32c0,8.836,7.163,16,16,16h32c8.836,0,16-7.164,16-16v-32
	C160,232.164,152.836,225,144,225z M240,417h-32c-8.837,0-16,7.163-16,16v32c0,8.837,7.163,16,16,16h32c8.836,0,16-7.163,16-16v-32
	C256,424.163,248.836,417,240,417z M336,417h-32c-8.837,0-16,7.163-16,16v32c0,8.837,7.163,16,16,16h32c8.836,0,16-7.163,16-16v-32
	C352,424.163,344.836,417,336,417z M240,321h-32c-8.837,0-16,7.164-16,16v32c0,8.836,7.163,16,16,16h32c8.836,0,16-7.164,16-16v-32
	C256,328.164,248.836,321,240,321z M240,129h-32c-8.837,0-16,7.164-16,16v32c0,8.836,7.163,16,16,16h32c8.836,0,16-7.164,16-16v-32
	C256,136.164,248.836,129,240,129z M144,417h-32c-8.837,0-16,7.163-16,16v32c0,8.837,7.163,16,16,16h32c8.836,0,16-7.163,16-16v-32
	C160,424.163,152.836,417,144,417z M240,33h-32c-8.837,0-16,7.164-16,16v32c0,8.836,7.163,16,16,16h32c8.836,0,16-7.164,16-16V49
	C256,40.164,248.836,33,240,33z M336,33h-32c-8.837,0-16,7.164-16,16v32c0,8.836,7.163,16,16,16h32c8.836,0,16-7.164,16-16V49
	C352,40.164,344.836,33,336,33z M48,225H16c-8.837,0-16,7.164-16,16v32c0,8.836,7.163,16,16,16h32c8.836,0,16-7.164,16-16v-32
	C64,232.164,56.836,225,48,225z M48,417H16c-8.837,0-16,7.163-16,16v32c0,8.837,7.163,16,16,16h32c8.836,0,16-7.163,16-16v-32
	C64,424.163,56.836,417,48,417z M48,321H16c-8.837,0-16,7.164-16,16v32c0,8.836,7.163,16,16,16h32c8.836,0,16-7.164,16-16v-32
	C64,328.164,56.836,321,48,321z M48,129H16c-8.837,0-16,7.164-16,16v32c0,8.836,7.163,16,16,16h32c8.836,0,16-7.164,16-16v-32
	C64,136.164,56.836,129,48,129z M48,33H16C7.163,33,0,40.164,0,49v32c0,8.836,7.163,16,16,16h32c8.836,0,16-7.164,16-16V49
	C64,40.164,56.836,33,48,33z M144,33h-32c-8.837,0-16,7.164-16,16v32c0,8.836,7.163,16,16,16h32c8.836,0,16-7.164,16-16V49
	C160,40.164,152.836,33,144,33z M448,481h-64V33h64V481z"/>
<g>
</g>
<g>
</g>
<g>
</g>
<g>
</g>
<g>
</g>
<g>
</g>

</symbol>
<symbol id="border-solid" viewBox="0 0 448 512">
<rect y="212.429" fill="currentColor" width="451.143" height="50"/>
<g>
</g>
<g>
</g>
<g>
</g>
<g>
</g>
<g>
</g>
<g>
</g>

</symbol>
<symbol id="border-top" viewBox="0 0 448 512">
<path fill="currentColor" d="M240,225h-32c-8.837,0-16,7.164-16,16v32c0,8.836,7.163,16,16,16h32c8.836,0,16-7.164,16-16v-32
	C256,232.164,248.836,225,240,225z M336,225h-32c-8.837,0-16,7.164-16,16v32c0,8.836,7.163,16,16,16h32c8.836,0,16-7.164,16-16v-32
	C352,232.164,344.836,225,336,225z M432,225h-32c-8.837,0-16,7.164-16,16v32c0,8.836,7.163,16,16,16h32c8.836,0,16-7.164,16-16v-32
	C448,232.164,440.836,225,432,225z M144,225h-32c-8.837,0-16,7.164-16,16v32c0,8.836,7.163,16,16,16h32c8.836,0,16-7.164,16-16v-32
	C160,232.164,152.836,225,144,225z M240,417h-32c-8.837,0-16,7.163-16,16v32c0,8.837,7.163,16,16,16h32c8.836,0,16-7.163,16-16v-32
	C256,424.163,248.836,417,240,417z M336,417h-32c-8.837,0-16,7.163-16,16v32c0,8.837,7.163,16,16,16h32c8.836,0,16-7.163,16-16v-32
	C352,424.163,344.836,417,336,417z M432,417h-32c-8.837,0-16,7.163-16,16v32c0,8.837,7.163,16,16,16h32c8.836,0,16-7.163,16-16v-32
	C448,424.163,440.836,417,432,417z M432,321h-32c-8.837,0-16,7.164-16,16v32c0,8.836,7.163,16,16,16h32c8.836,0,16-7.164,16-16v-32
	C448,328.164,440.836,321,432,321z M432,129h-32c-8.837,0-16,7.164-16,16v32c0,8.836,7.163,16,16,16h32c8.836,0,16-7.164,16-16v-32
	C448,136.164,440.836,129,432,129z M240,321h-32c-8.837,0-16,7.164-16,16v32c0,8.836,7.163,16,16,16h32c8.836,0,16-7.164,16-16v-32
	C256,328.164,248.836,321,240,321z M240,129h-32c-8.837,0-16,7.164-16,16v32c0,8.836,7.163,16,16,16h32c8.836,0,16-7.164,16-16v-32
	C256,136.164,248.836,129,240,129z M144,417h-32c-8.837,0-16,7.163-16,16v32c0,8.837,7.163,16,16,16h32c8.836,0,16-7.163,16-16v-32
	C160,424.163,152.836,417,144,417z M48,225H16c-8.837,0-16,7.164-16,16v32c0,8.836,7.163,16,16,16h32c8.836,0,16-7.164,16-16v-32
	C64,232.164,56.836,225,48,225z M48,417H16c-8.837,0-16,7.163-16,16v32c0,8.837,7.163,16,16,16h32c8.836,0,16-7.163,16-16v-32
	C64,424.163,56.836,417,48,417z M48,321H16c-8.837,0-16,7.164-16,16v32c0,8.836,7.163,16,16,16h32c8.836,0,16-7.164,16-16v-32
	C64,328.164,56.836,321,48,321z M48,129H16c-8.837,0-16,7.164-16,16v32c0,8.836,7.163,16,16,16h32c8.836,0,16-7.164,16-16v-32
	C64,136.164,56.836,129,48,129z M448,97.572H0V33.143h448V97.572z"/>
<g>
</g>
<g>
</g>
<g>
</g>
<g>
</g>
<g>
</g>
<g>
</g>

</symbol>
<symbol id="capitalize" viewBox="0 0 448 512">
<g enable-background="new    ">
	<path fill="currentColor" d="M252.084,355.036h-55.181l-21.936-66.913H74.545l-20.736,66.913h-53.81L97.851,60.459h53.639
		L252.084,355.036z M158.688,238.492l-34.617-109.311L90.14,238.492H158.688z"/>
	<path fill="currentColor" d="M314.634,206.743l-43.699-9.243c4.911-20.627,13.367-35.899,25.363-45.814
		c11.996-9.912,29.818-14.87,53.467-14.87c21.478,0,37.472,2.983,47.984,8.942c10.51,5.962,17.908,13.532,22.192,22.706
		c4.284,9.177,6.426,26.021,6.426,50.536l-0.514,65.908c0,18.757,0.771,32.587,2.313,41.494c1.542,8.91,4.426,18.455,8.654,28.634
		H389.18c-1.258-3.749-2.801-9.31-4.627-16.678c-0.8-3.347-1.37-5.558-1.713-6.631c-8.227,9.378-17.025,16.411-26.392,21.099
		c-9.369,4.688-19.364,7.032-29.989,7.032c-18.738,0-33.503-5.959-44.3-17.883c-10.796-11.922-16.194-26.992-16.194-45.212
		c0-12.057,2.456-22.807,7.369-32.251c4.911-9.444,11.795-16.677,20.65-21.701c8.852-5.023,21.619-9.409,38.301-13.161
		c22.506-4.955,38.101-9.576,46.784-13.865v-5.626c0-10.851-2.287-18.587-6.854-23.208c-4.571-4.622-13.196-6.932-25.877-6.932
		c-8.568,0-15.252,1.978-20.051,5.927C321.489,189.899,317.604,196.831,314.634,206.743z M379.069,252.557
		c-6.169,2.412-15.938,5.293-29.305,8.64c-13.366,3.351-22.106,6.632-26.22,9.847c-6.284,5.225-9.425,11.855-9.425,19.893
		c0,7.906,2.512,14.737,7.54,20.496c5.026,5.761,11.423,8.641,19.193,8.641c8.682,0,16.966-3.348,24.849-10.048
		c5.827-5.089,9.653-11.318,11.482-18.687c1.256-4.823,1.885-13.997,1.885-27.529V252.557z"/>
</g>
<g>
</g>
<g>
</g>
<g>
</g>
<g>
</g>
<g>
</g>
<g>
</g>

</symbol>
<symbol id="italic" viewBox="0 0 320 512"><path d="M204.758 416h-33.849l62.092-320h40.725a16 16 0 0 0 15.704-12.937l6.242-32C297.599 41.184 290.034 32 279.968 32H120.235a16 16 0 0 0-15.704 12.937l-6.242 32C96.362 86.816 103.927 96 113.993 96h33.846l-62.09 320H46.278a16 16 0 0 0-15.704 12.935l-6.245 32C22.402 470.815 29.967 480 40.034 480h158.479a16 16 0 0 0 15.704-12.935l6.245-32c1.927-9.88-5.638-19.065-15.704-19.065z"/>
</symbol>
<symbol id="justify-content-center" viewBox="0 0 448 512">
<path d="M383.499,124.75h-40c-8.837,0-16,3.996-16,8.928v232.145c0,4.931,7.163,8.928,16,8.928h40c8.837,0,16-3.997,16-8.928
	V133.679C399.499,128.747,392.336,124.75,383.499,124.75z M200.999,467.25v-422h42.5v422H200.999z M104,124.75H64
	c-8.837,0-16,3.996-16,8.928v232.145c0,4.931,7.163,8.928,16,8.928h40c8.837,0,16-3.997,16-8.928V133.679
	C120,128.747,112.837,124.75,104,124.75z"/>

</symbol>
<symbol id="justify-content-end" viewBox="0 0 448 512">
<path d="M252,123.75h-40c-8.837,0-16,3.996-16,8.928v232.145c0,4.931,7.163,8.928,16,8.928h40c8.837,0,16-3.997,16-8.928V132.679
	C268,127.747,260.837,123.75,252,123.75z M356.999,467.25v-422h42.5v422H356.999z M104,124.75H64c-8.837,0-16,3.996-16,8.928
	v232.145c0,4.931,7.163,8.928,16,8.928h40c8.837,0,16-3.997,16-8.928V133.679C120,128.747,112.837,124.75,104,124.75z"/>

</symbol>
<symbol id="justify-content-space-around" viewBox="0 0 448 512">
<path d="M300.499,124.75h-40c-8.837,0-16,3.996-16,8.928v232.145c0,4.931,7.163,8.928,16,8.928h40c8.837,0,16-3.997,16-8.928
	V133.679C316.499,128.747,309.336,124.75,300.499,124.75z M0,467.25v-422h42.5v422H0z M171,124.75h-40c-8.837,0-16,3.996-16,8.928
	v232.145c0,4.931,7.163,8.928,16,8.928h40c8.837,0,16-3.997,16-8.928V133.679C187,128.747,179.837,124.75,171,124.75z M406.5,467.25
	v-422H449v422H406.5z"/>

</symbol>
<symbol id="justify-content-space-between" viewBox="0 0 448 512">
<path d="M350.499,124.75h-40c-8.837,0-16,3.996-16,8.928v232.145c0,4.931,7.163,8.928,16,8.928h40c8.837,0,16-3.997,16-8.928
	V133.679C366.499,128.747,359.336,124.75,350.499,124.75z M0,467.25v-422h42.5v422H0z M140,124.75h-40c-8.837,0-16,3.996-16,8.928
	v232.145c0,4.931,7.163,8.928,16,8.928h40c8.837,0,16-3.997,16-8.928V133.679C156,128.747,148.837,124.75,140,124.75z M406.5,467.25
	v-422H449v422H406.5z"/>

</symbol>
<symbol id="justify-content-start" viewBox="0 0 448 512">
<path d="M164.499,390.75h40c8.837,0,16-3.996,16-8.928V149.678c0-4.931-7.163-8.928-16-8.928h-40c-8.837,0-16,3.997-16,8.928
	v232.144C148.499,386.753,155.662,390.75,164.499,390.75z M59.5,47.25v422H17v-422H59.5z M312.499,389.75h40
	c8.837,0,16-3.996,16-8.928V148.678c0-4.931-7.163-8.928-16-8.928h-40c-8.837,0-16,3.997-16,8.928v232.144
	C296.499,385.753,303.662,389.75,312.499,389.75z"/>

</symbol>
<symbol id="link" viewBox="0 0 512 512"><path d="M326.612 185.391c59.747 59.809 58.927 155.698.36 214.59-.11.12-.24.25-.36.37l-67.2 67.2c-59.27 59.27-155.699 59.262-214.96 0-59.27-59.26-59.27-155.7 0-214.96l37.106-37.106c9.84-9.84 26.786-3.3 27.294 10.606.648 17.722 3.826 35.527 9.69 52.721 1.986 5.822.567 12.262-3.783 16.612l-13.087 13.087c-28.026 28.026-28.905 73.66-1.155 101.96 28.024 28.579 74.086 28.749 102.325.51l67.2-67.19c28.191-28.191 28.073-73.757 0-101.83-3.701-3.694-7.429-6.564-10.341-8.569a16.037 16.037 0 0 1-6.947-12.606c-.396-10.567 3.348-21.456 11.698-29.806l21.054-21.055c5.521-5.521 14.182-6.199 20.584-1.731a152.482 152.482 0 0 1 20.522 17.197zM467.547 44.449c-59.261-59.262-155.69-59.27-214.96 0l-67.2 67.2c-.12.12-.25.25-.36.37-58.566 58.892-59.387 154.781.36 214.59a152.454 152.454 0 0 0 20.521 17.196c6.402 4.468 15.064 3.789 20.584-1.731l21.054-21.055c8.35-8.35 12.094-19.239 11.698-29.806a16.037 16.037 0 0 0-6.947-12.606c-2.912-2.005-6.64-4.875-10.341-8.569-28.073-28.073-28.191-73.639 0-101.83l67.2-67.19c28.239-28.239 74.3-28.069 102.325.51 27.75 28.3 26.872 73.934-1.155 101.96l-13.087 13.087c-4.35 4.35-5.769 10.79-3.783 16.612 5.864 17.194 9.042 34.999 9.69 52.721.509 13.906 17.454 20.446 27.294 10.606l37.106-37.106c59.271-59.259 59.271-155.699.001-214.959z"/>
</symbol>
<symbol id="lowercase" viewBox="0 0 448 512">
<g enable-background="new    ">
	<path fill="currentColor" d="M69.811,204.783l-49.865-9.303c5.604-20.761,15.253-36.131,28.941-46.11
		c13.688-9.976,34.025-14.966,61.011-14.966c24.508,0,42.758,3.002,54.754,9c11.993,6,20.435,13.619,25.324,22.853
		c4.889,9.236,7.333,26.189,7.333,50.863l-0.587,66.334c0,18.878,0.88,32.797,2.64,41.762c1.76,8.969,5.051,18.574,9.875,28.819
		h-54.362c-1.436-3.773-3.196-9.369-5.28-16.786c-0.914-3.368-1.564-5.593-1.956-6.674c-9.387,9.439-19.427,16.518-30.115,21.235
		c-10.691,4.718-22.097,7.078-34.221,7.078c-21.382,0-38.229-5.997-50.549-17.999c-12.319-11.998-18.479-27.166-18.479-45.504
		c0-12.134,2.802-22.954,8.409-32.459c5.604-9.505,13.459-16.786,23.564-21.842c10.101-5.056,24.669-9.471,43.705-13.247
		c25.681-4.987,43.476-9.638,53.385-13.955v-5.663c0-10.921-2.609-18.707-7.822-23.359c-5.216-4.651-15.058-6.977-29.528-6.977
		c-9.778,0-17.404,1.991-22.879,5.966C77.632,187.83,73.199,194.807,69.811,204.783z M143.337,250.894
		c-7.04,2.427-18.186,5.328-33.439,8.696c-15.253,3.371-25.226,6.674-29.919,9.909c-7.171,5.259-10.755,11.933-10.755,20.022
		c0,7.956,2.866,14.832,8.604,20.628c5.735,5.799,13.035,8.696,21.901,8.696c9.906,0,19.359-3.368,28.354-10.112
		c6.649-5.122,11.015-11.392,13.102-18.808c1.433-4.854,2.151-14.088,2.151-27.707V250.894z"/>
	<path fill="currentColor" d="M292.541,204.783l-49.865-9.303c5.604-20.761,15.253-36.131,28.941-46.11
		c13.688-9.976,34.025-14.966,61.012-14.966c24.508,0,42.758,3.002,54.753,9c11.993,6,20.436,13.619,25.324,22.853
		c4.889,9.236,7.333,26.189,7.333,50.863l-0.587,66.334c0,18.878,0.88,32.797,2.64,41.762c1.761,8.969,5.051,18.574,9.876,28.819
		h-54.363c-1.436-3.773-3.195-9.369-5.279-16.786c-0.914-3.368-1.564-5.593-1.956-6.674c-9.386,9.439-19.426,16.518-30.114,21.235
		c-10.691,4.718-22.097,7.078-34.221,7.078c-21.383,0-38.23-5.997-50.55-17.999c-12.319-11.998-18.479-27.166-18.479-45.504
		c0-12.134,2.802-22.954,8.409-32.459c5.604-9.505,13.459-16.786,23.563-21.842c10.102-5.056,24.67-9.471,43.705-13.247
		c25.681-4.987,43.476-9.638,53.385-13.955v-5.663c0-10.921-2.609-18.707-7.822-23.359c-5.216-4.651-15.057-6.977-29.527-6.977
		c-9.777,0-17.404,1.991-22.88,5.966C300.363,187.83,295.93,194.807,292.541,204.783z M366.067,250.894
		c-7.04,2.427-18.187,5.328-33.438,8.696c-15.253,3.371-25.227,6.674-29.919,9.909c-7.172,5.259-10.756,11.933-10.756,20.022
		c0,7.956,2.866,14.832,8.604,20.628c5.735,5.799,13.034,8.696,21.901,8.696c9.906,0,19.359-3.368,28.354-10.112
		c6.648-5.122,11.015-11.392,13.102-18.808c1.434-4.854,2.151-14.088,2.151-27.707V250.894z"/>
</g>

</symbol>
<symbol id="mail" viewBox="0 0 512 512"><path d="M502.3 190.8c3.9-3.1 9.7-.2 9.7 4.7V400c0 26.5-21.5 48-48 48H48c-26.5 0-48-21.5-48-48V195.6c0-5 5.7-7.8 9.7-4.7 22.4 17.4 52.1 39.5 154.1 113.6 21.1 15.4 56.7 47.8 92.2 47.6 35.7.3 72-32.8 92.3-47.6 102-74.1 131.6-96.3 154-113.7zM256 320c23.2.4 56.6-29.2 73.4-41.4 132.7-96.3 142.8-104.7 173.4-128.7 5.8-4.5 9.2-11.5 9.2-18.9v-19c0-26.5-21.5-48-48-48H48C21.5 64 0 85.5 0 112v19c0 7.4 3.4 14.3 9.2 18.9 30.6 23.9 40.7 32.4 173.4 128.7 16.8 12.2 50.2 41.8 73.4 41.4z"/>
</symbol>
<symbol id="overline" viewBox="0 0 448 512"><path fill="currentColor" d="M432 0H16A16 16 0 0 0 0 16v32a16 16 0 0 0 16 16h416a16 16 0 0 0 16-16V16a16 16 0 0 0-16-16zM232.19 128h-16.38A167.81 167.81 0 0 0 48 295.81v48.38A167.81 167.81 0 0 0 215.81 512h16.38A167.81 167.81 0 0 0 400 344.19v-48.38A167.81 167.81 0 0 0 232.19 128zM320 344.19A87.91 87.91 0 0 1 232.19 432h-16.38A87.91 87.91 0 0 1 128 344.19v-48.38A87.91 87.91 0 0 1 215.81 208h16.38A87.91 87.91 0 0 1 320 295.81z" class=""/>
</symbol>
<symbol id="page" viewBox="0 0 384 512"><path d="M224 136V0H24C10.7 0 0 10.7 0 24v464c0 13.3 10.7 24 24 24h336c13.3 0 24-10.7 24-24V160H248c-13.2 0-24-10.8-24-24zm160-14.1v6.1H256V0h6.1c6.4 0 12.5 2.5 17 7l97.9 98c4.5 4.5 7 10.6 7 16.9z"/>
</symbol>
<symbol id="phone" viewBox="0 0 512 512"><path d="M493.4 24.6l-104-24c-11.3-2.6-22.9 3.3-27.5 13.9l-48 112c-4.2 9.8-1.4 21.3 6.9 28l60.6 49.6c-36 76.7-98.9 140.5-177.2 177.2l-49.6-60.6c-6.8-8.3-18.2-11.1-28-6.9l-112 48C3.9 366.5-2 378.1.6 389.4l24 104C27.1 504.2 36.7 512 48 512c256.1 0 464-207.5 464-464 0-11.2-7.7-20.9-18.6-23.4z"/>
</symbol>
<symbol id="popup" viewBox="0 0 448 512">
<ellipse cx="341.964" cy="76.804" rx="7.373" ry="6.667"/>
<ellipse cx="371.455" cy="76.804" rx="7.373" ry="6.667"/>
<ellipse cx="400.947" cy="76.804" rx="7.373" ry="6.667"/>
<path d="M439.039,25.5H8.96C4.013,25.5,0,30.211,0,36.023v73.658v21.047v347.25c0,5.81,4.013,10.522,8.96,10.522h430.079
	c4.949,0,8.961-4.713,8.961-10.522v-347.25v-21.047V36.023C448,30.211,443.989,25.5,439.039,25.5z M430.081,467.454H17.921V130.728
	h412.16V467.454z M17.921,109.681V46.545h412.16v63.136H17.921z"/>
<path d="M327.677,206.667H120.321c-5.725,0-10.367,5.819-10.367,12.994v155.921c0,7.175,4.642,12.993,10.367,12.993h207.356
	c5.725,0,10.369-5.818,10.369-12.993V219.661C338.046,212.486,333.402,206.667,327.677,206.667z M317.309,232.653v25.987h-186.62
	v-25.987H317.309z M130.689,362.587v-77.958h186.62v77.958H130.689z"/>

</symbol>
<symbol id="sidebar" viewBox="0 0 448 512">
<ellipse cx="341.964" cy="76.804" rx="7.373" ry="6.667"/>
<ellipse cx="371.455" cy="76.804" rx="7.373" ry="6.667"/>
<ellipse cx="400.947" cy="76.804" rx="7.373" ry="6.667"/>
<path d="M439.039,25.5H8.96C4.013,25.5,0,30.211,0,36.023v73.658v21.047v347.25c0,5.81,4.013,10.522,8.96,10.522h430.079
	c4.949,0,8.961-4.713,8.961-10.522v-347.25v-21.047V36.023C448,30.211,443.989,25.5,439.039,25.5z M430.081,467.454H17.921V130.728
	h412.16V467.454z M17.921,109.681V46.545h412.16v63.136H17.921z"/>
<path d="M187.474,130.667H26.978c-4.431,0-8.024,10.773-8.024,24.058v288.674c0,13.283,3.593,24.056,8.024,24.056h160.496
	c4.431,0,8.026-10.772,8.026-24.056V154.725C195.5,141.44,191.906,130.667,187.474,130.667z M179.449,178.778v48.113H35.003v-48.113
	H179.449z M35.003,419.339V275.007h144.446v144.332H35.003z"/>

</symbol>
<symbol id="strikethrough" viewBox="0 0 512 512"><path d="M496 288H16c-8.837 0-16-7.163-16-16v-32c0-8.837 7.163-16 16-16h480c8.837 0 16 7.163 16 16v32c0 8.837-7.163 16-16 16zm-214.666 16c27.258 12.937 46.524 28.683 46.524 56.243 0 33.108-28.977 53.676-75.621 53.676-32.325 0-76.874-12.08-76.874-44.271V368c0-8.837-7.164-16-16-16H113.75c-8.836 0-16 7.163-16 16v19.204c0 66.845 77.717 101.82 154.487 101.82 88.578 0 162.013-45.438 162.013-134.424 0-19.815-3.618-36.417-10.143-50.6H281.334zm-30.952-96c-32.422-13.505-56.836-28.946-56.836-59.683 0-33.92 30.901-47.406 64.962-47.406 42.647 0 64.962 16.593 64.962 32.985V136c0 8.837 7.164 16 16 16h45.613c8.836 0 16-7.163 16-16v-30.318c0-52.438-71.725-79.875-142.575-79.875-85.203 0-150.726 40.972-150.726 125.646 0 22.71 4.665 41.176 12.777 56.547h129.823z"/>
</symbol>
<symbol id="text-height" viewBox="0 0 576 512"><path d="M16 32h288c8.837 0 16 7.163 16 16v96c0 8.837-7.163 16-16 16h-35.496c-8.837 0-16-7.163-16-16V96h-54.761v320H232c8.837 0 16 7.163 16 16v32c0 8.837-7.163 16-16 16H88c-8.837 0-16-7.163-16-16v-32c0-8.837 7.163-16 16-16h34.257V96H67.496v48c0 8.837-7.163 16-16 16H16c-8.837 0-16-7.163-16-16V48c0-8.837 7.163-16 16-16zm475.308 4.685l79.995 80.001C581.309 126.693 574.297 144 559.99 144H512v224h48c15.639 0 20.635 17.991 11.313 27.314l-79.995 80.001c-6.247 6.247-16.381 6.245-22.626 0l-79.995-80.001C378.691 385.307 385.703 368 400.01 368H448V144h-48c-15.639 0-20.635-17.991-11.313-27.314l79.995-80.001c6.247-6.248 16.381-6.245 22.626 0z"/>
</symbol>
<symbol id="text-width" viewBox="0 0 448 512"><path d="M16 32h416c8.837 0 16 7.163 16 16v96c0 8.837-7.163 16-16 16h-35.496c-8.837 0-16-7.163-16-16V96H261.743v128H296c8.837 0 16 7.163 16 16v32c0 8.837-7.163 16-16 16H152c-8.837 0-16-7.163-16-16v-32c0-8.837 7.163-16 16-16h34.257V96H67.496v48c0 8.837-7.163 16-16 16H16c-8.837 0-16-7.163-16-16V48c0-8.837 7.163-16 16-16zm427.315 340.682l-80.001-79.995C353.991 283.365 336 288.362 336 304v48H112v-47.99c0-14.307-17.307-21.319-27.314-11.313L4.685 372.692c-6.245 6.245-6.247 16.379 0 22.626l80.001 79.995C94.009 484.635 112 479.638 112 464v-48h224v47.99c0 14.307 17.307 21.319 27.314 11.313l80.001-79.995c6.245-6.245 6.248-16.379 0-22.626z"/>
</symbol>
<symbol id="times" viewBox="0 0 352 512"><path d="M242.72 256l100.07-100.07c12.28-12.28 12.28-32.19 0-44.48l-22.24-22.24c-12.28-12.28-32.19-12.28-44.48 0L176 189.28 75.93 89.21c-12.28-12.28-32.19-12.28-44.48 0L9.21 111.45c-12.28 12.28-12.28 32.19 0 44.48L109.28 256 9.21 356.07c-12.28 12.28-12.28 32.19 0 44.48l22.24 22.24c12.28 12.28 32.2 12.28 44.48 0L176 322.72l100.07 100.07c12.28 12.28 32.2 12.28 44.48 0l22.24-22.24c12.28-12.28 12.28-32.19 0-44.48L242.72 256z"/>
</symbol>
<symbol id="underline" viewBox="0 0 448 512"><path d="M224.264 388.24c-91.669 0-156.603-51.165-156.603-151.392V64H39.37c-8.837 0-16-7.163-16-16V16c0-8.837 7.163-16 16-16h137.39c8.837 0 16 7.163 16 16v32c0 8.837-7.163 16-16 16h-28.813v172.848c0 53.699 28.314 79.444 76.317 79.444 46.966 0 75.796-25.434 75.796-79.965V64h-28.291c-8.837 0-16-7.163-16-16V16c0-8.837 7.163-16 16-16h136.868c8.837 0 16 7.163 16 16v32c0 8.837-7.163 16-16 16h-28.291v172.848c0 99.405-64.881 151.392-156.082 151.392zM16 448h416c8.837 0 16 7.163 16 16v32c0 8.837-7.163 16-16 16H16c-8.837 0-16-7.163-16-16v-32c0-8.837 7.163-16 16-16z"/>
</symbol>
<symbol id="uppercase" viewBox="0 0 448 512">
<g enable-background="new    ">
	<path fill="currentColor" d="M224.953,355.036h-49.242l-19.574-66.913H66.522l-18.504,66.913H-0.001L87.32,60.459h47.866
		L224.953,355.036z M141.608,238.492l-30.891-109.311L80.438,238.492H141.608z"/>
	<path fill="currentColor" d="M451.131,355.036h-49.242l-19.574-66.913h-89.615l-18.504,66.913h-48.019l87.32-294.577h47.866
		L451.131,355.036z M367.786,238.492l-30.891-109.311l-30.279,109.311H367.786z"/>
</g>
<g>
</g>
<g>
</g>
<g>
</g>
<g>
</g>
<g>
</g>
<g>
</g>

</symbol></svg>